<?xml version="1.0" encoding="UTF-8" standalone="no"?>
<!-- Created with Inkscape (http://www.inkscape.org/) -->

<svg
   xmlns:ns0="http://www.iki.fi/pav/software/textext/"
   xmlns:dc="http://purl.org/dc/elements/1.1/"
   xmlns:cc="http://creativecommons.org/ns#"
   xmlns:rdf="http://www.w3.org/1999/02/22-rdf-syntax-ns#"
   xmlns:svg="http://www.w3.org/2000/svg"
   xmlns="http://www.w3.org/2000/svg"
   xmlns:xlink="http://www.w3.org/1999/xlink"
   xmlns:sodipodi="http://sodipodi.sourceforge.net/DTD/sodipodi-0.dtd"
   xmlns:inkscape="http://www.inkscape.org/namespaces/inkscape"
   width="141.30046mm"
   height="126.19469mm"
   viewBox="0 0 141.30046 126.19469"
   version="1.1"
   id="svg8"
   inkscape:version="0.92.3 (2405546, 2018-03-11)"
   sodipodi:docname="esquema_solucao.svg">
  <sodipodi:namedview
     id="base"
     pagecolor="#ffffff"
     bordercolor="#666666"
     borderopacity="1.0"
     inkscape:pageopacity="0.0"
     inkscape:pageshadow="2"
     inkscape:zoom="1"
     inkscape:cx="-71.875102"
     inkscape:cy="202.98926"
     inkscape:document-units="mm"
     inkscape:current-layer="layer1-8"
     showgrid="false"
     inkscape:window-width="1920"
     inkscape:window-height="1027"
     inkscape:window-x="-8"
     inkscape:window-y="-8"
     inkscape:window-maximized="1" />
  <defs
     id="defs2">
    <marker
       inkscape:stockid="Arrow1Mend"
       orient="auto"
       refY="0"
       refX="0"
       id="marker1837"
       style="overflow:visible"
       inkscape:isstock="true">
      <path
         id="path943"
         d="M 0,0 5,-5 -12.5,0 5,5 Z"
         style="fill:#000000;fill-opacity:1;fill-rule:evenodd;stroke:#000000;stroke-width:1.00000003pt;stroke-opacity:1"
         transform="matrix(-0.4,0,0,-0.4,-4,0)"
         inkscape:connector-curvature="0" />
    </marker>
    <marker
       inkscape:isstock="true"
       style="overflow:visible"
       id="Arrow1Sstart"
       refX="0"
       refY="0"
       orient="auto"
       inkscape:stockid="Arrow1Sstart">
      <path
         transform="matrix(0.2,0,0,0.2,1.2,0)"
         style="fill:#000000;fill-opacity:1;fill-rule:evenodd;stroke:#000000;stroke-width:1.00000003pt;stroke-opacity:1"
         d="M 0,0 5,-5 -12.5,0 5,5 Z"
         id="path946"
         inkscape:connector-curvature="0" />
    </marker>
    <marker
       inkscape:isstock="true"
       style="overflow:visible"
       id="Arrow1Send"
       refX="0"
       refY="0"
       orient="auto"
       inkscape:stockid="Arrow1Send">
      <path
         transform="matrix(-0.2,0,0,-0.2,-1.2,0)"
         style="fill:#000000;fill-opacity:1;fill-rule:evenodd;stroke:#000000;stroke-width:1.00000003pt;stroke-opacity:1"
         d="M 0,0 5,-5 -12.5,0 5,5 Z"
         id="path949"
         inkscape:connector-curvature="0" />
    </marker>
    <marker
       inkscape:stockid="Arrow1Mend"
       orient="auto"
       refY="0"
       refX="0"
       id="marker5342"
       style="overflow:visible"
       inkscape:isstock="true">
      <path
         inkscape:connector-curvature="0"
         id="path5088"
         d="M 0,0 5,-5 -12.5,0 5,5 Z"
         style="fill:#21846e;fill-opacity:1;fill-rule:evenodd;stroke:#21846e;stroke-width:1.00000003pt;stroke-opacity:1"
         transform="matrix(-0.4,0,0,-0.4,-4,0)" />
    </marker>
    <linearGradient
       id="linearGradient1890"
       inkscape:collect="always">
      <stop
         id="stop1886"
         offset="0"
         style="stop-color:#000000;stop-opacity:1;" />
      <stop
         id="stop1888"
         offset="1"
         style="stop-color:#000000;stop-opacity:0;" />
    </linearGradient>
    <marker
       inkscape:isstock="true"
       style="overflow:visible"
       id="marker6943"
       refX="0"
       refY="0"
       orient="auto"
       inkscape:stockid="Arrow1Mstart">
      <path
         transform="matrix(0.4,0,0,0.4,4,0)"
         style="fill:#b45a5a;fill-opacity:1;fill-rule:evenodd;stroke:#b45a5a;stroke-width:1.00000003pt;stroke-opacity:1"
         d="M 0,0 5,-5 -12.5,0 5,5 Z"
         id="path6941"
         inkscape:connector-curvature="0" />
    </marker>
    <marker
       inkscape:isstock="true"
       style="overflow:visible"
       id="marker6915"
       refX="0"
       refY="0"
       orient="auto"
       inkscape:stockid="Arrow1Mend">
      <path
         transform="matrix(-0.4,0,0,-0.4,-4,0)"
         style="fill:#b45a5a;fill-opacity:1;fill-rule:evenodd;stroke:#b45a5a;stroke-width:1.00000003pt;stroke-opacity:1"
         d="M 0,0 5,-5 -12.5,0 5,5 Z"
         id="path6913"
         inkscape:connector-curvature="0" />
    </marker>
    <marker
       inkscape:isstock="true"
       style="overflow:visible"
       id="Arrow1Mstart"
       refX="0"
       refY="0"
       orient="auto"
       inkscape:stockid="Arrow1Mstart">
      <path
         transform="matrix(0.4,0,0,0.4,4,0)"
         style="fill:#000000;fill-opacity:1;fill-rule:evenodd;stroke:#000000;stroke-width:1.00000003pt;stroke-opacity:1"
         d="M 0,0 5,-5 -12.5,0 5,5 Z"
         id="path6589"
         inkscape:connector-curvature="0" />
    </marker>
    <marker
       inkscape:isstock="true"
       style="overflow:visible"
       id="Arrow1Mend"
       refX="0"
       refY="0"
       orient="auto"
       inkscape:stockid="Arrow1Mend">
      <path
         transform="matrix(-0.4,0,0,-0.4,-4,0)"
         style="fill:#000000;fill-opacity:1;fill-rule:evenodd;stroke:#000000;stroke-width:1.00000003pt;stroke-opacity:1"
         d="M 0,0 5,-5 -12.5,0 5,5 Z"
         id="path6592"
         inkscape:connector-curvature="0" />
    </marker>
    <radialGradient
       gradientTransform="matrix(1.2953107,0,0,0.87109379,-93.761139,40.927726)"
       gradientUnits="userSpaceOnUse"
       r="317.85718"
       fy="317.5"
       fx="317.5"
       cy="317.5"
       cx="317.5"
       id="radialGradient1892"
       xlink:href="#linearGradient1890"
       inkscape:collect="always" />
    <radialGradient
       r="317.85718"
       fy="317.5"
       fx="317.5"
       cy="317.5"
       cx="317.5"
       gradientTransform="matrix(1.2953107,0,0,0.87109379,-93.761139,40.927726)"
       gradientUnits="userSpaceOnUse"
       id="radialGradient1073"
       xlink:href="#linearGradient1890"
       inkscape:collect="always" />
    <radialGradient
       r="317.85718"
       fy="317.5"
       fx="317.5"
       cy="317.5"
       cx="317.5"
       gradientTransform="matrix(1.2953107,0,0,0.87109379,-93.761139,40.927726)"
       gradientUnits="userSpaceOnUse"
       id="radialGradient1075"
       xlink:href="#linearGradient1890"
       inkscape:collect="always" />
    <radialGradient
       r="317.85718"
       fy="317.5"
       fx="317.5"
       cy="317.5"
       cx="317.5"
       gradientTransform="matrix(1.2953107,0,0,0.87109379,-93.761139,40.927726)"
       gradientUnits="userSpaceOnUse"
       id="radialGradient1077"
       xlink:href="#linearGradient1890"
       inkscape:collect="always" />
    <radialGradient
       r="317.85718"
       fy="317.5"
       fx="317.5"
       cy="317.5"
       cx="317.5"
       gradientTransform="matrix(1.2953107,0,0,0.87109379,-93.761139,40.927726)"
       gradientUnits="userSpaceOnUse"
       id="radialGradient1079"
       xlink:href="#linearGradient1890"
       inkscape:collect="always" />
    <radialGradient
       r="317.85718"
       fy="317.5"
       fx="317.5"
       cy="317.5"
       cx="317.5"
       gradientTransform="matrix(1.2953107,0,0,0.87109379,-93.761139,40.927726)"
       gradientUnits="userSpaceOnUse"
       id="radialGradient1081"
       xlink:href="#linearGradient1890"
       inkscape:collect="always" />
    <radialGradient
       r="317.85718"
       fy="317.5"
       fx="317.5"
       cy="317.5"
       cx="317.5"
       gradientTransform="matrix(1.2953107,0,0,0.87109379,-93.761139,40.927726)"
       gradientUnits="userSpaceOnUse"
       id="radialGradient1085"
       xlink:href="#linearGradient1890"
       inkscape:collect="always" />
    <radialGradient
       r="317.85718"
       fy="317.5"
       fx="317.5"
       cy="317.5"
       cx="317.5"
       gradientTransform="matrix(1.2953107,0,0,0.87109379,-93.761139,40.927726)"
       gradientUnits="userSpaceOnUse"
       id="radialGradient1089"
       xlink:href="#linearGradient1890"
       inkscape:collect="always" />
    <radialGradient
       r="317.85718"
       fy="317.5"
       fx="317.5"
       cy="317.5"
       cx="317.5"
       gradientTransform="matrix(1.2953107,0,0,0.87109379,-93.761139,40.927726)"
       gradientUnits="userSpaceOnUse"
       id="radialGradient1091"
       xlink:href="#linearGradient1890"
       inkscape:collect="always" />
    <radialGradient
       r="317.85718"
       fy="317.5"
       fx="317.5"
       cy="317.5"
       cx="317.5"
       gradientTransform="matrix(1.2953107,0,0,0.87109379,-93.761139,40.927726)"
       gradientUnits="userSpaceOnUse"
       id="radialGradient1093"
       xlink:href="#linearGradient1890"
       inkscape:collect="always" />
    <radialGradient
       r="317.85718"
       fy="317.5"
       fx="317.5"
       cy="317.5"
       cx="317.5"
       gradientTransform="matrix(1.2953107,0,0,0.87109379,-93.761139,40.927726)"
       gradientUnits="userSpaceOnUse"
       id="radialGradient1095"
       xlink:href="#linearGradient1890"
       inkscape:collect="always" />
    <radialGradient
       r="317.85718"
       fy="317.5"
       fx="317.5"
       cy="317.5"
       cx="317.5"
       gradientTransform="matrix(1.2953107,0,0,0.87109379,-93.761139,40.927726)"
       gradientUnits="userSpaceOnUse"
       id="radialGradient1097"
       xlink:href="#linearGradient1890"
       inkscape:collect="always" />
    <radialGradient
       r="317.85718"
       fy="317.5"
       fx="317.5"
       cy="317.5"
       cx="317.5"
       gradientTransform="matrix(1.2953107,0,0,0.87109379,-93.761139,40.927726)"
       gradientUnits="userSpaceOnUse"
       id="radialGradient1101"
       xlink:href="#linearGradient1890"
       inkscape:collect="always" />
  </defs>
  <metadata
     id="metadata5">
    <rdf:RDF>
      <cc:Work
         rdf:about="">
        <dc:format>image/svg+xml</dc:format>
        <dc:type
           rdf:resource="http://purl.org/dc/dcmitype/StillImage" />
        <dc:title></dc:title>
      </cc:Work>
    </rdf:RDF>
  </metadata>
  <g
     inkscape:label="Camada 1"
     inkscape:groupmode="layer"
     id="layer1"
     transform="translate(-27.700067,-109.33117)">
    <g
       id="layer1-8"
       inkscape:label="Camada 1"
       transform="matrix(0.89454235,0,0,0.89454235,3.9215371,-8.1462042)">
      <g
         ns0:jacobian_sqrt="0.827741"
         ns0:alignment="middle center"
         ns0:scale="2.34635237577"
         ns0:preamble="C:\\Users\\mateu\\AppData\\Roaming\\inkscape\\extensions\\textext\\default_packages.tex"
         ns0:text="$\\Omega$\n$(x_i, y_i)$\n"
         ns0:pdfconverter="pstoedit"
         ns0:texconverter="pdflatex"
         ns0:version="0.9.0-dev2"
         word-spacing="normal"
         letter-spacing="normal"
         font-size-adjust="none"
         font-stretch="normal"
         font-weight="normal"
         font-variant="normal"
         font-style="normal"
         stroke-miterlimit="10.433"
         xml:space="preserve"
         transform="matrix(0.827741,0,0,-0.827741,56.083471,672.17852)"
         id="g4876"
         style="font-style:normal;font-variant:normal;font-weight:normal;font-stretch:normal;letter-spacing:normal;word-spacing:normal;text-anchor:start;fill:none;fill-opacity:1;fill-rule:evenodd;stroke:#000000;stroke-linecap:butt;stroke-linejoin:miter;stroke-miterlimit:10.43299961;stroke-dasharray:none;stroke-dashoffset:0;stroke-opacity:1">
<path
   style="fill:none;stroke:#21846e;stroke-width:1.24227977;stroke-linecap:butt;stroke-linejoin:miter;stroke-miterlimit:10.43299961;stroke-dasharray:none;stroke-opacity:1;marker-end:url(#marker5342)"
   d="m 123.67271,599.30577 21.80161,21.8016"
   id="path5077"
   inkscape:connector-curvature="0" /><path
   id="path4856"
   d="m 151.62661,645.51587 h -0.84 c -0.12,0 -0.24,-0.01 -0.36,-0.01 h -0.53 c 0.14,0.56 0.42,1.03 0.78,1.64 0.4,0.69 0.83,1.42 0.83,2.25 0,1.4 -1.34,2.53 -3.03,2.53 -1.72,0 -3.04,-1.15 -3.04,-2.53 0,-0.83 0.41,-1.54 0.93,-2.41 0.37,-0.63 0.58,-1.03 0.69,-1.48 h -0.53 c -0.12,0 -0.24,0.01 -0.36,0.01 h -0.85 v -0.71 h 2.44 c -0.01,0.5 -0.09,1.03 -0.63,2.15 -0.4,0.8 -0.8,1.61 -0.8,2.44 0,1.13 0.96,1.92 2.14,1.92 1.23,0 2.16,-0.81 2.16,-1.92 0,-0.78 -0.35,-1.53 -0.73,-2.32 -0.42,-0.85 -0.7,-1.47 -0.71,-2.27 h 2.44 z"
   inkscape:connector-curvature="0"
   style="fill:#000000;stroke-width:0" />
<path
   id="path4858"
   d="m 127.69334,598.22803 -0.03,-0.02 -0.04,-0.03 -0.03,-0.04 -0.04,-0.03 -0.04,-0.04 -0.04,-0.04 -0.04,-0.04 -0.04,-0.04 -0.04,-0.05 -0.05,-0.04 -0.04,-0.05 -0.05,-0.06 -0.05,-0.05 -0.05,-0.06 -0.04,-0.06 -0.05,-0.06 -0.05,-0.07 -0.05,-0.06 -0.05,-0.08 -0.05,-0.07 -0.05,-0.08 -0.05,-0.08 -0.05,-0.08 -0.05,-0.08 -0.05,-0.09 -0.05,-0.1 -0.05,-0.09 -0.05,-0.1 -0.04,-0.1 -0.05,-0.11 -0.05,-0.11 -0.04,-0.11 c -0.4,-1.06 -0.47,-2.12 -0.47,-2.84 0,-3.21 1.44,-4.53 1.92,-4.97 h 0.61 c -0.48,0.48 -1.75,1.76 -1.75,4.97 0,0.56 0.03,1.72 0.44,2.89 0.41,1.15 0.98,1.75 1.31,2.07 z"
   inkscape:connector-curvature="0"
   style="fill:#000000;stroke-width:0" />
<polygon
   id="polygon4860"
   points="167.64,661.65 165.96,660.01 164.93,661.65 164.1,661.65 165.53,659.51 163.1,657.23 163.92,657.23 165.77,659.1 166.86,657.23 167.69,657.23 166.18,659.51 168.47,661.65 "
   style="fill:#000000;stroke-width:0"
   transform="translate(-34.236661,-66.45197)" />
<polygon
   id="polygon4862"
   points="169.09,659.81 169.79,659.81 169.95,660.51 169.24,660.51 "
   style="fill:#000000;stroke-width:0"
   transform="translate(-34.236661,-66.45197)" />
<polygon
   id="polygon4864"
   points="169.53,658.83 168.94,658.83 168.28,655.74 168.87,655.74 "
   style="fill:#000000;stroke-width:0"
   transform="translate(-34.236661,-66.45197)" />
<polygon
   id="polygon4866"
   points="172.45,658.06 171.62,658.06 171.62,657.23 171.87,657.23 171.62,655.99 172.03,655.99 172.45,657.24 "
   style="fill:#000000;stroke-width:0"
   transform="translate(-34.236661,-66.45197)" />
<path
   id="path4868"
   d="m 146.22334,595.19803 h -0.74 l -1.36,-2.24 c -0.31,-0.55 -0.7,-1.25 -0.79,-1.6 h -0.01 c 0.01,0.07 0.01,0.14 0.01,0.25 0,0.52 -0.18,1.51 -0.29,2.03 l -0.34,1.56 h -0.78 l 0.96,-4.28 c 0,-0.02 0.03,-0.1 0.03,-0.11 0,-0.06 -0.46,-0.77 -0.53,-0.89 -0.29,-0.44 -0.45,-0.6 -0.7,-0.6 -0.17,0 -0.49,0.03 -0.75,0.15 l -0.08,-0.64 c 0.27,-0.06 0.54,-0.08 0.7,-0.08 0.29,0 0.7,0.04 1.39,1.16 z"
   inkscape:connector-curvature="0"
   style="fill:#000000;stroke-width:0" />
<polygon
   id="polygon4870"
   points="181.06,659.81 181.77,659.81 181.92,660.51 181.22,660.51 "
   style="fill:#000000;stroke-width:0"
   transform="translate(-34.236661,-66.45197)" />
<polygon
   id="polygon4872"
   points="181.51,658.83 180.92,658.83 180.26,655.74 180.85,655.74 "
   style="fill:#000000;stroke-width:0"
   transform="translate(-34.236661,-66.45197)" />
<path
   id="path4874"
   d="m 147.33967,588.27735 0.04,0.03 0.03,0.03 0.03,0.03 0.04,0.04 0.04,0.04 0.04,0.03 0.04,0.04 0.04,0.05 0.04,0.04 0.05,0.05 0.05,0.05 0.04,0.05 0.05,0.06 0.05,0.06 0.05,0.06 0.05,0.06 0.05,0.06 0.05,0.07 0.05,0.07 0.05,0.08 0.05,0.07 0.05,0.08 0.05,0.09 0.05,0.08 0.05,0.09 0.04,0.09 0.05,0.1 0.05,0.1 0.05,0.1 0.04,0.11 0.05,0.1 0.04,0.12 c 0.4,1.06 0.47,2.11 0.47,2.84 0,3.21 -1.44,4.53 -1.92,4.96 h -0.6 c 0.47,-0.47 1.74,-1.75 1.74,-4.96 0,-0.56 -0.03,-1.72 -0.44,-2.89 -0.41,-1.16 -0.98,-1.75 -1.3,-2.08 z"
   inkscape:connector-curvature="0"
   style="fill:#000000;stroke-width:0" />
<g
   style="font-style:normal;font-variant:normal;font-weight:normal;font-stretch:normal;letter-spacing:normal;word-spacing:normal;text-anchor:start;fill:none;fill-opacity:1;fill-rule:evenodd;stroke:#000000;stroke-linecap:butt;stroke-linejoin:miter;stroke-miterlimit:10.43299961;stroke-dasharray:none;stroke-dashoffset:0;stroke-opacity:1"
   id="g6014"
   transform="matrix(0.827741,0,0,-0.827741,17.909636,1172.6116)"
   xml:space="preserve"
   stroke-miterlimit="10.433"
   font-style="normal"
   font-variant="normal"
   font-weight="normal"
   font-stretch="normal"
   font-size-adjust="none"
   letter-spacing="normal"
   word-spacing="normal"
   ns0:version="0.9.0-dev2"
   ns0:texconverter="pdflatex"
   ns0:pdfconverter="pstoedit"
   ns0:text="$\\mathbf{E}$"
   ns0:preamble="C:\\Users\\mateu\\AppData\\Roaming\\inkscape\\extensions\\textext\\default_packages.tex"
   ns0:scale="2.34635237577"
   ns0:alignment="middle center"
   inkscapeversion="0.92.3"
   ns0:jacobian_sqrt="0.827741">
<path
   style="fill:#000000;stroke-width:0"
   inkscape:connector-curvature="0"
   d="m 151.09,660.32 h 2.62 c 0.31,0 0.48,0.07 0.48,0.47 0,0.37 -0.13,0.47 -0.48,0.47 h -2.62 v 1.84 h 0.48 c 0.78,0 1.57,-0.03 2.35,-0.03 0.35,0 0.58,0 0.58,0.47 v 0.08 c 0,0.32 -0.07,0.48 -0.48,0.48 h -3.92 c -0.36,0 -0.48,-0.11 -0.48,-0.48 v -5.91 c 0,-0.36 0.11,-0.48 0.48,-0.48 h 4.07 c 0.38,0 0.48,0.13 0.48,0.48 v 0.14 c 0,0.48 -0.23,0.48 -0.56,0.48 -0.52,0 -1.03,-0.02 -1.55,-0.02 -0.25,0 -1.28,-0.01 -1.45,-0.02 z"
   id="path6012" />
</g></g>      <circle
         r="2.1841509"
         cy="152.51689"
         cx="52.214062"
         id="path6879-6-51-5-50-7"
         style="opacity:1;fill:#000000;fill-opacity:1;fill-rule:evenodd;stroke:none;stroke-width:0.90801013;stroke-linecap:round;stroke-miterlimit:4;stroke-dasharray:none;stroke-dashoffset:0;stroke-opacity:1;paint-order:stroke markers fill" />
      <g
         style="stroke:url(#radialGradient1892);stroke-opacity:1"
         transform="matrix(0.33264142,0,0,0.30324952,-0.65135238,104.43086)"
         inkscape:label="Grid_Polar:X8:Y8"
         id="g6324">
        <g
           style="stroke:url(#radialGradient1085);stroke-opacity:1"
           inkscape:label="MajorXGridlines"
           id="g6090"
           transform="matrix(1,0,0,0.83197235,0,66.708124)">
          <path
             inkscape:connector-curvature="0"
             d="M 158.75,0 V 635"
             style="fill:none;stroke:url(#radialGradient1073);stroke-width:0.52916664;stroke-opacity:1"
             inkscape:label="MajorXDiv2"
             id="path6078" />
          <path
             inkscape:connector-curvature="0"
             d="M 238.125,0 V 635"
             style="fill:none;stroke:url(#radialGradient1075);stroke-width:0.52916664;stroke-opacity:1"
             inkscape:label="MajorXDiv3"
             id="path6080" />
          <path
             inkscape:connector-curvature="0"
             d="M 317.5,0 V 635"
             style="fill:none;stroke:url(#radialGradient1077);stroke-width:0.52916664;stroke-opacity:1"
             inkscape:label="MajorXDiv4"
             id="path6082" />
          <path
             inkscape:connector-curvature="0"
             d="M 396.875,0 V 635"
             style="fill:none;stroke:url(#radialGradient1079);stroke-width:0.52916664;stroke-opacity:1"
             inkscape:label="MajorXDiv5"
             id="path6084" />
          <path
             inkscape:connector-curvature="0"
             d="M 476.25,0 V 635"
             style="fill:none;stroke:url(#radialGradient1081);stroke-width:0.52916664;stroke-opacity:1"
             inkscape:label="MajorXDiv6"
             id="path6086" />
        </g>
        <g
           style="stroke:url(#radialGradient1101);stroke-opacity:1"
           inkscape:label="MajorYGridlines"
           id="g6106"
           transform="matrix(0.71346375,0,0,1,88.587574,0)">
          <path
             inkscape:connector-curvature="0"
             d="M 0,158.75 H 635"
             style="fill:none;stroke:url(#radialGradient1089);stroke-width:0.52916664;stroke-opacity:1"
             inkscape:label="MajorYDiv2"
             id="path6094" />
          <path
             inkscape:connector-curvature="0"
             d="M 0,238.125 H 635"
             style="fill:none;stroke:url(#radialGradient1091);stroke-width:0.52916664;stroke-opacity:1"
             inkscape:label="MajorYDiv3"
             id="path6096" />
          <path
             inkscape:connector-curvature="0"
             d="M 0,317.5 H 635"
             style="fill:none;stroke:url(#radialGradient1093);stroke-width:0.52916664;stroke-opacity:1"
             inkscape:label="MajorYDiv4"
             id="path6098" />
          <path
             inkscape:connector-curvature="0"
             d="M 0,396.875 H 635"
             style="fill:none;stroke:url(#radialGradient1095);stroke-width:0.52916664;stroke-opacity:1"
             inkscape:label="MajorYDiv5"
             id="path6100" />
          <path
             inkscape:connector-curvature="0"
             d="M 0,476.25 H 635"
             style="fill:none;stroke:url(#radialGradient1097);stroke-width:0.52916664;stroke-opacity:1"
             inkscape:label="MajorYDiv6"
             id="path6102" />
        </g>
        <g
           ns0:jacobian_sqrt="0.827741"
           inkscapeversion="0.92.3"
           ns0:alignment="middle center"
           ns0:scale="2.34635237577"
           ns0:preamble="C:\\Users\\mateu\\AppData\\Roaming\\inkscape\\extensions\\textext\\default_packages.tex"
           ns0:text="$q$"
           ns0:pdfconverter="pstoedit"
           ns0:texconverter="pdflatex"
           ns0:version="0.9.0-dev2"
           word-spacing="normal"
           letter-spacing="normal"
           font-size-adjust="none"
           font-stretch="normal"
           font-weight="normal"
           font-variant="normal"
           font-style="normal"
           stroke-miterlimit="10.433"
           xml:space="preserve"
           transform="matrix(3.105947,0,0,-3.105947,-133.87946,2379.4858)"
           id="content"
           style="font-style:normal;font-variant:normal;font-weight:normal;font-stretch:normal;letter-spacing:normal;word-spacing:normal;text-anchor:start;fill:none;fill-opacity:1;fill-rule:evenodd;stroke:#000000;stroke-linecap:butt;stroke-linejoin:miter;stroke-miterlimit:10.43299961;stroke-dasharray:none;stroke-dashoffset:0;stroke-opacity:1">
<path
   id="path1002"
   d="m 154.01,661.76 h -0.75 l -0.14,-0.67 c -0.14,0.22 -0.54,0.67 -1.24,0.67 -1.16,0 -2.41,-1.38 -2.41,-2.98 0,-0.94 0.47,-1.65 1.27,-1.65 0.69,0 1.3,0.35 1.62,0.59 l -0.26,0.29 c -0.28,-0.2 -0.57,-0.28 -0.78,-0.28 -0.68,0 -1.05,0.59 -1.05,1.26 0,1.16 0.97,2.13 1.85,2.13 0.8,0 0.8,-0.91 0.8,-0.92 l -0.04,-0.18 -0.3,-1.42 c -0.05,-0.24 -0.28,-0.45 -0.48,-0.59 l 0.26,-0.29 -0.51,-2.41 h 0.78 z"
   inkscape:connector-curvature="0"
   style="fill:#000000;stroke-width:0" />
</g>      </g>
      <path
         inkscape:connector-curvature="0"
         id="path815"
         d="m 105.02301,176.45054 v 47.92891"
         style="opacity:1;fill:none;stroke:#000000;stroke-width:1;stroke-linecap:butt;stroke-linejoin:miter;stroke-miterlimit:4;stroke-dasharray:2.00000006, 1.00000003;stroke-dashoffset:0;stroke-opacity:1;marker-start:url(#Arrow1Mstart);marker-end:url(#Arrow1Mend)" />
      <circle
         r="3.623199"
         cy="200.76611"
         cx="105.01638"
         id="path817"
         style="opacity:1;fill:#853a05;fill-opacity:1;fill-rule:evenodd;stroke:#002700;stroke-width:0;stroke-linecap:round;stroke-miterlimit:4;stroke-dasharray:none;stroke-dashoffset:0;stroke-opacity:1;paint-order:stroke markers fill" />
      <circle
         r="0"
         cy="153.20908"
         cx="157.15448"
         id="path6879"
         style="opacity:1;fill:#000000;fill-opacity:1;fill-rule:evenodd;stroke:#002700;stroke-width:0.90801013;stroke-linecap:round;stroke-miterlimit:4;stroke-dasharray:1.81602037, 0.90801018;stroke-dashoffset:0;stroke-opacity:1;paint-order:stroke markers fill" />
      <circle
         r="2.1841509"
         cy="152.59192"
         cx="105.02301"
         id="path6879-6-51-5-2"
         style="opacity:1;fill:#000000;fill-opacity:1;fill-rule:evenodd;stroke:none;stroke-width:0.90801013;stroke-linecap:round;stroke-miterlimit:4;stroke-dasharray:none;stroke-dashoffset:0;stroke-opacity:1;paint-order:stroke markers fill" />
      <circle
         r="2.1841509"
         cy="152.56917"
         cx="131.32062"
         id="path6879-6-51-5-5-5"
         style="opacity:1;fill:#000000;fill-opacity:1;fill-rule:evenodd;stroke:none;stroke-width:0.90801013;stroke-linecap:round;stroke-miterlimit:4;stroke-dasharray:none;stroke-dashoffset:0;stroke-opacity:1;paint-order:stroke markers fill" />
      <circle
         r="2.1841509"
         cy="152.35788"
         cx="78.740562"
         id="path6879-6-51-5-524-9"
         style="opacity:1;fill:#000000;fill-opacity:1;fill-rule:evenodd;stroke:none;stroke-width:0.90801013;stroke-linecap:round;stroke-miterlimit:4;stroke-dasharray:none;stroke-dashoffset:0;stroke-opacity:1;paint-order:stroke markers fill" />
      <circle
         r="2.1841509"
         cy="176.69597"
         cx="131.32062"
         id="path6879-6-51-5-5-1"
         style="opacity:1;fill:#000000;fill-opacity:1;fill-rule:evenodd;stroke:none;stroke-width:0.90801013;stroke-linecap:round;stroke-miterlimit:4;stroke-dasharray:none;stroke-dashoffset:0;stroke-opacity:1;paint-order:stroke markers fill" />
      <circle
         r="2.1841509"
         cy="176.48468"
         cx="158.10942"
         id="path6879-6-51-5-3-0"
         style="opacity:1;fill:#000000;fill-opacity:1;fill-rule:evenodd;stroke:none;stroke-width:0.90801013;stroke-linecap:round;stroke-miterlimit:4;stroke-dasharray:none;stroke-dashoffset:0;stroke-opacity:1;paint-order:stroke markers fill" />
      <circle
         r="2.1841509"
         cy="176.48468"
         cx="78.740562"
         id="path6879-6-51-5-524-8"
         style="opacity:1;fill:#000000;fill-opacity:1;fill-rule:evenodd;stroke:none;stroke-width:0.90801013;stroke-linecap:round;stroke-miterlimit:4;stroke-dasharray:none;stroke-dashoffset:0;stroke-opacity:1;paint-order:stroke markers fill" />
      <circle
         r="2.1841509"
         cy="176.69597"
         cx="52.475494"
         id="path6879-6-51-5-50-4"
         style="opacity:1;fill:#000000;fill-opacity:1;fill-rule:evenodd;stroke:none;stroke-width:0.90801013;stroke-linecap:round;stroke-miterlimit:4;stroke-dasharray:none;stroke-dashoffset:0;stroke-opacity:1;paint-order:stroke markers fill" />
      <circle
         r="2.1841509"
         cy="200.53503"
         cx="131.32062"
         id="path6879-6-51-5-5-7"
         style="opacity:1;fill:#000000;fill-opacity:1;fill-rule:evenodd;stroke:none;stroke-width:0.90801013;stroke-linecap:round;stroke-miterlimit:4;stroke-dasharray:none;stroke-dashoffset:0;stroke-opacity:1;paint-order:stroke markers fill" />
      <circle
         r="2.1841509"
         cy="200.32376"
         cx="158.10942"
         id="path6879-6-51-5-3-8"
         style="opacity:1;fill:#000000;fill-opacity:1;fill-rule:evenodd;stroke:none;stroke-width:0.90801013;stroke-linecap:round;stroke-miterlimit:4;stroke-dasharray:none;stroke-dashoffset:0;stroke-opacity:1;paint-order:stroke markers fill" />
      <circle
         r="2.1841509"
         cy="200.32376"
         cx="78.740562"
         id="path6879-6-51-5-524-7"
         style="opacity:1;fill:#000000;fill-opacity:1;fill-rule:evenodd;stroke:none;stroke-width:0.90801013;stroke-linecap:round;stroke-miterlimit:4;stroke-dasharray:none;stroke-dashoffset:0;stroke-opacity:1;paint-order:stroke markers fill" />
      <circle
         r="2.1841509"
         cy="200.53503"
         cx="52.475494"
         id="path6879-6-51-5-50-9"
         style="opacity:1;fill:#000000;fill-opacity:1;fill-rule:evenodd;stroke:none;stroke-width:0.90801013;stroke-linecap:round;stroke-miterlimit:4;stroke-dasharray:none;stroke-dashoffset:0;stroke-opacity:1;paint-order:stroke markers fill" />
      <circle
         r="2.1841509"
         cy="224.55304"
         cx="131.32062"
         id="path6879-6-51-5-5-5-0"
         style="opacity:1;fill:#000000;fill-opacity:1;fill-rule:evenodd;stroke:none;stroke-width:0.90801013;stroke-linecap:round;stroke-miterlimit:4;stroke-dasharray:none;stroke-dashoffset:0;stroke-opacity:1;paint-order:stroke markers fill" />
      <circle
         r="2.1841509"
         cy="224.34175"
         cx="158.10942"
         id="path6879-6-51-5-3-9-6"
         style="opacity:1;fill:#000000;fill-opacity:1;fill-rule:evenodd;stroke:none;stroke-width:0.90801013;stroke-linecap:round;stroke-miterlimit:4;stroke-dasharray:none;stroke-dashoffset:0;stroke-opacity:1;paint-order:stroke markers fill" />
      <circle
         r="2.1841509"
         cy="224.34175"
         cx="78.740562"
         id="path6879-6-51-5-524-9-5"
         style="opacity:1;fill:#000000;fill-opacity:1;fill-rule:evenodd;stroke:none;stroke-width:0.90801013;stroke-linecap:round;stroke-miterlimit:4;stroke-dasharray:none;stroke-dashoffset:0;stroke-opacity:1;paint-order:stroke markers fill" />
      <circle
         r="2.1841509"
         cy="224.55304"
         cx="52.475494"
         id="path6879-6-51-5-50-7-0"
         style="opacity:1;fill:#000000;fill-opacity:1;fill-rule:evenodd;stroke:none;stroke-width:0.90801013;stroke-linecap:round;stroke-miterlimit:4;stroke-dasharray:none;stroke-dashoffset:0;stroke-opacity:1;paint-order:stroke markers fill" />
      <circle
         r="2.1841509"
         cy="248.60831"
         cx="105.02301"
         id="path6879-6-51-5-6"
         style="opacity:1;fill:#000000;fill-opacity:1;fill-rule:evenodd;stroke:none;stroke-width:0.90801013;stroke-linecap:round;stroke-miterlimit:4;stroke-dasharray:none;stroke-dashoffset:0;stroke-opacity:1;paint-order:stroke markers fill" />
      <circle
         r="2.1841509"
         cy="248.58556"
         cx="131.32062"
         id="path6879-6-51-5-5-9"
         style="opacity:1;fill:#000000;fill-opacity:1;fill-rule:evenodd;stroke:none;stroke-width:0.90801013;stroke-linecap:round;stroke-miterlimit:4;stroke-dasharray:none;stroke-dashoffset:0;stroke-opacity:1;paint-order:stroke markers fill" />
      <circle
         r="2.1841509"
         cy="248.37428"
         cx="158.10942"
         id="path6879-6-51-5-3-00"
         style="opacity:1;fill:#000000;fill-opacity:1;fill-rule:evenodd;stroke:none;stroke-width:0.90801013;stroke-linecap:round;stroke-miterlimit:4;stroke-dasharray:none;stroke-dashoffset:0;stroke-opacity:1;paint-order:stroke markers fill" />
      <circle
         r="2.1841509"
         cy="248.37428"
         cx="78.740562"
         id="path6879-6-51-5-524-86"
         style="opacity:1;fill:#000000;fill-opacity:1;fill-rule:evenodd;stroke:none;stroke-width:0.90801013;stroke-linecap:round;stroke-miterlimit:4;stroke-dasharray:none;stroke-dashoffset:0;stroke-opacity:1;paint-order:stroke markers fill" />
      <circle
         r="2.1841509"
         cy="248.58556"
         cx="52.475494"
         id="path6879-6-51-5-50-70"
         style="opacity:1;fill:#000000;fill-opacity:1;fill-rule:evenodd;stroke:none;stroke-width:0.90801013;stroke-linecap:round;stroke-miterlimit:4;stroke-dasharray:none;stroke-dashoffset:0;stroke-opacity:1;paint-order:stroke markers fill" />
      <circle
         r="2.1841509"
         cy="152.35788"
         cx="158.10942"
         id="path6879-6-51-5-3-9"
         style="opacity:1;fill:#000000;fill-opacity:1;fill-rule:evenodd;stroke:none;stroke-width:0.90801013;stroke-linecap:round;stroke-miterlimit:4;stroke-dasharray:none;stroke-dashoffset:0;stroke-opacity:1;paint-order:stroke markers fill" />
      <g
         ns0:jacobian_sqrt="0.827741"
         inkscapeversion="0.92.3"
         ns0:alignment="middle center"
         ns0:scale="2.34635237577"
         ns0:preamble="C:\\Users\\mateu\\AppData\\Roaming\\inkscape\\extensions\\textext\\default_packages.tex"
         ns0:text="$\\mathcal{M}$"
         ns0:pdfconverter="pstoedit"
         ns0:texconverter="pdflatex"
         ns0:version="0.9.0-dev2"
         word-spacing="normal"
         letter-spacing="normal"
         font-size-adjust="none"
         font-stretch="normal"
         font-weight="normal"
         font-variant="normal"
         font-style="normal"
         stroke-miterlimit="10.433"
         xml:space="preserve"
         transform="matrix(0.827741,0,0,-0.827741,-84.67888,665.27021)"
         id="g1719"
         style="font-style:normal;font-variant:normal;font-weight:normal;font-stretch:normal;letter-spacing:normal;word-spacing:normal;text-anchor:start;fill:none;fill-opacity:1;fill-rule:evenodd;stroke:#000000;stroke-linecap:butt;stroke-linejoin:miter;stroke-miterlimit:10.43299961;stroke-dasharray:none;stroke-dashoffset:0;stroke-opacity:1">
<path
   id="path1717"
   d="m 151.79199,635.61069 0.03,-0.13 0.02,-0.12 0.03,-0.14 0.03,-0.13 0.03,-0.14 0.03,-0.14 0.06,-0.3 0.07,-0.3 0.07,-0.31 0.08,-0.31 0.08,-0.32 0.08,-0.31 0.09,-0.31 0.08,-0.3 0.1,-0.29 0.04,-0.14 0.05,-0.14 0.05,-0.14 0.05,-0.13 0.05,-0.12 0.05,-0.12 0.06,-0.12 0.05,-0.11 c 0.22,-0.43 0.33,-0.65 0.43,-0.65 0.04,0 0.06,0 0.24,0.18 0.75,0.73 1.27,1.3 1.97,2.1 l 2.18,2.53 c -0.14,-0.84 -0.49,-3.08 -0.49,-4.24 0,-0.27 0.01,-0.53 0.04,-0.8 0.01,-0.11 0.04,-0.39 0.46,-0.39 0.42,0 1.18,0.43 1.18,0.63 0,0.06 -0.06,0.07 -0.09,0.07 -0.13,0 -0.33,-0.09 -0.44,-0.16 -0.24,0.03 -0.26,0.19 -0.28,0.42 -0.03,0.32 -0.03,0.62 -0.03,0.66 0,1.1 0.44,4.11 0.73,5.34 0.01,0.07 0.02,0.09 0.02,0.17 0,0.04 -0.01,0.15 -0.08,0.15 -0.04,0 -0.05,-0.01 -0.24,-0.23 -0.94,-1.13 -3.85,-4.61 -4.83,-5.44 -0.25,0.52 -0.43,0.9 -0.78,2.29 -0.29,1.12 -0.46,1.95 -0.63,2.91 -0.03,0.14 -0.08,0.41 -0.08,0.43 -0.03,0.05 -0.08,0.05 -0.11,0.05 -0.18,0 -0.6,-0.22 -0.63,-0.43 -0.12,-0.83 -0.32,-2.15 -1.02,-4.04 -0.79,-2.12 -1.01,-2.12 -1.2,-2.12 -0.13,0 -0.5,0.08 -0.72,0.28 -0.05,0.05 -0.07,0.05 -0.09,0.05 -0.14,0 -0.36,-0.45 -0.36,-0.72 0,-0.1 0,-0.21 0.32,-0.38 0.25,-0.13 0.49,-0.14 0.54,-0.14 0.62,0 1.2,1.42 1.4,1.92 0.47,1.13 1.03,2.7 1.31,4.13 z"
   inkscape:connector-curvature="0"
   style="fill:#000000;stroke-width:0" />
</g>      <path
         style="fill:none;stroke:#000000;stroke-width:0.33776832px;stroke-linecap:butt;stroke-linejoin:miter;stroke-opacity:1;marker-end:url(#marker1837)"
         d="m 51.959148,151.28176 c -0.158444,-3.53712 -0.586524,-6.8327 -3.463456,-8.94819"
         id="path1834"
         inkscape:connector-curvature="0"
         sodipodi:nodetypes="cc" />
    </g>
  </g>
</svg>
