<?xml version="1.0" encoding="UTF-8" standalone="no"?>
<!-- Created with Inkscape (http://www.inkscape.org/) -->

<svg
   xmlns:ns0="http://www.iki.fi/pav/software/textext/"
   xmlns:dc="http://purl.org/dc/elements/1.1/"
   xmlns:cc="http://creativecommons.org/ns#"
   xmlns:rdf="http://www.w3.org/1999/02/22-rdf-syntax-ns#"
   xmlns:svg="http://www.w3.org/2000/svg"
   xmlns="http://www.w3.org/2000/svg"
   xmlns:sodipodi="http://sodipodi.sourceforge.net/DTD/sodipodi-0.dtd"
   xmlns:inkscape="http://www.inkscape.org/namespaces/inkscape"
   width="110.64689mm"
   height="72.667892mm"
   viewBox="0 0 110.64689 72.667893"
   version="1.1"
   id="svg8"
   inkscape:version="0.92.3 (2405546, 2018-03-11)"
   sodipodi:docname="work-function.svg">
  <sodipodi:namedview
     id="base"
     pagecolor="#ffffff"
     bordercolor="#666666"
     borderopacity="1.0"
     inkscape:pageopacity="0.0"
     inkscape:pageshadow="2"
     inkscape:zoom="1.4142136"
     inkscape:cx="174.1164"
     inkscape:cy="138.47258"
     inkscape:document-units="mm"
     inkscape:current-layer="g3677"
     showgrid="false"
     inkscape:window-width="1366"
     inkscape:window-height="715"
     inkscape:window-x="-8"
     inkscape:window-y="-8"
     inkscape:window-maximized="1" />
  <defs
     id="defs2">
    <marker
       inkscape:isstock="true"
       style="overflow:visible"
       id="marker3801"
       refX="0"
       refY="0"
       orient="auto"
       inkscape:stockid="Arrow1Mend">
      <path
         transform="matrix(-0.4,0,0,-0.4,-4,0)"
         style="fill:#000000;fill-opacity:1;fill-rule:evenodd;stroke:#000000;stroke-width:1.00000003pt;stroke-opacity:1"
         d="M 0,0 5,-5 -12.5,0 5,5 Z"
         id="path3799"
         inkscape:connector-curvature="0" />
    </marker>
    <marker
       inkscape:stockid="Arrow1Mend"
       orient="auto"
       refY="0"
       refX="0"
       id="marker2842"
       style="overflow:visible"
       inkscape:isstock="true">
      <path
         inkscape:connector-curvature="0"
         id="path2840"
         d="M 0,0 5,-5 -12.5,0 5,5 Z"
         style="fill:#1e8a00;fill-opacity:1;fill-rule:evenodd;stroke:#1e8a00;stroke-width:1.00000003pt;stroke-opacity:1"
         transform="matrix(-0.4,0,0,-0.4,-4,0)" />
    </marker>
    <marker
       inkscape:stockid="Arrow1Mend"
       orient="auto"
       refY="0"
       refX="0"
       id="marker2116"
       style="overflow:visible"
       inkscape:isstock="true">
      <path
         inkscape:connector-curvature="0"
         id="path2114"
         d="M 0,0 5,-5 -12.5,0 5,5 Z"
         style="fill:#000000;fill-opacity:1;fill-rule:evenodd;stroke:#000000;stroke-width:1.00000003pt;stroke-opacity:1"
         transform="matrix(-0.4,0,0,-0.4,-4,0)" />
    </marker>
    <marker
       inkscape:collect="always"
       inkscape:isstock="true"
       style="overflow:visible"
       id="Arrow1Mend"
       refX="0"
       refY="0"
       orient="auto"
       inkscape:stockid="Arrow1Mend">
      <path
         inkscape:connector-curvature="0"
         transform="matrix(-0.4,0,0,-0.4,-4,0)"
         style="fill:#000000;fill-opacity:1;fill-rule:evenodd;stroke:#000000;stroke-width:1.00000003pt;stroke-opacity:1"
         d="M 0,0 5,-5 -12.5,0 5,5 Z"
         id="path826" />
    </marker>
    <marker
       inkscape:isstock="true"
       style="overflow:visible"
       id="Arrow1Mend-6"
       refX="0"
       refY="0"
       orient="auto"
       inkscape:stockid="Arrow1Mend">
      <path
         transform="matrix(-0.4,0,0,-0.4,-4,0)"
         style="fill:#000000;fill-opacity:1;fill-rule:evenodd;stroke:#000000;stroke-width:1.00000003pt;stroke-opacity:1"
         d="M 0,0 5,-5 -12.5,0 5,5 Z"
         id="path826-6"
         inkscape:connector-curvature="0" />
    </marker>
    <marker
       inkscape:isstock="true"
       style="overflow:visible"
       id="Arrow1Mend-7"
       refX="0"
       refY="0"
       orient="auto"
       inkscape:stockid="Arrow1Mend">
      <path
         transform="matrix(-0.4,0,0,-0.4,-4,0)"
         style="fill:#000000;fill-opacity:1;fill-rule:evenodd;stroke:#000000;stroke-width:1.00000003pt;stroke-opacity:1"
         d="M 0,0 5,-5 -12.5,0 5,5 Z"
         id="path826-1"
         inkscape:connector-curvature="0" />
    </marker>
    <marker
       inkscape:stockid="Arrow1Mend"
       orient="auto"
       refY="0"
       refX="0"
       id="marker2116-5"
       style="overflow:visible"
       inkscape:isstock="true">
      <path
         id="path2114-8"
         d="M 0,0 5,-5 -12.5,0 5,5 Z"
         style="fill:#000000;fill-opacity:1;fill-rule:evenodd;stroke:#000000;stroke-width:1.00000003pt;stroke-opacity:1"
         transform="matrix(-0.4,0,0,-0.4,-4,0)"
         inkscape:connector-curvature="0" />
    </marker>
  </defs>
  <metadata
     id="metadata5">
    <rdf:RDF>
      <cc:Work
         rdf:about="">
        <dc:format>image/svg+xml</dc:format>
        <dc:type
           rdf:resource="http://purl.org/dc/dcmitype/StillImage" />
        <dc:title />
      </cc:Work>
    </rdf:RDF>
  </metadata>
  <g
     transform="translate(-37.196531,-97.14905)"
     id="layer1"
     inkscape:groupmode="layer"
     inkscape:label="Camada 1">
    <path
       sodipodi:nodetypes="cc"
       inkscape:connector-curvature="0"
       id="path2106-2"
       d="m 105.70109,145.95396 0.0211,-19.22139"
       style="fill:none;stroke:#000000;stroke-width:0.34999999;stroke-linecap:butt;stroke-linejoin:miter;stroke-miterlimit:4;stroke-dasharray:none;stroke-opacity:1;marker-end:url(#marker2116-5)" />
    <path
       inkscape:connector-curvature="0"
       id="path2718"
       d="m 75.129903,117.99459 30.186287,8.04926"
       style="fill:#1e8a00;fill-opacity:1;stroke:#1e8a00;stroke-width:0.245621;stroke-linecap:butt;stroke-linejoin:miter;stroke-miterlimit:4;stroke-dasharray:none;stroke-opacity:1;marker-end:url(#marker2842)"
       sodipodi:nodetypes="cc" />
    <path
       inkscape:connector-curvature="0"
       id="path815"
       d="M 45.810714,162.0247 H 145.9744"
       style="fill:none;stroke:#000000;stroke-width:0.26499999;stroke-linecap:butt;stroke-linejoin:miter;stroke-miterlimit:4;stroke-dasharray:none;stroke-opacity:1;marker-end:url(#Arrow1Mend)" />
    <path
       inkscape:connector-curvature="0"
       id="path815-8"
       d="M 52.387501,168.74921 V 98.065148"
       style="fill:none;stroke:#000000;stroke-width:0.22261347;stroke-linecap:butt;stroke-linejoin:miter;stroke-miterlimit:4;stroke-dasharray:none;stroke-opacity:1;marker-end:url(#Arrow1Mend-6)" />
    <rect
       y="99.02552"
       x="60.920315"
       height="62.970833"
       width="14.287499"
       id="rect1410"
       style="opacity:0.556;fill:#e8764b;fill-opacity:0.96618359;stroke:#000000;stroke-width:0.26499999;stroke-linecap:round;stroke-miterlimit:4;stroke-dasharray:none;stroke-dashoffset:0;stroke-opacity:1" />
    <rect
       y="99.02552"
       x="105.7672"
       height="62.970833"
       width="14.2875"
       id="rect1410-2"
       style="opacity:0.6;fill:#3f004e;fill-opacity:0.59420286;stroke:#000000;stroke-width:0.26499999;stroke-linecap:round;stroke-miterlimit:4;stroke-dasharray:none;stroke-dashoffset:0;stroke-opacity:1" />
    <path
       inkscape:connector-curvature="0"
       id="path2106"
       d="M 75.141666,146.05521 V 118.53854"
       style="fill:none;stroke:#000000;stroke-width:0.34999999;stroke-linecap:butt;stroke-linejoin:miter;stroke-miterlimit:4;stroke-dasharray:none;stroke-opacity:1;marker-end:url(#marker2116)" />
    <path
       inkscape:connector-curvature="0"
       id="path815-0"
       d="M 45.89923,145.98206 H 146.06294"
       style="fill:#e8004b;fill-opacity:0.96618359;stroke:#ff0000;stroke-width:0.26499999;stroke-linecap:butt;stroke-linejoin:miter;stroke-miterlimit:4;stroke-dasharray:1.05999995, 1.05999995;stroke-dashoffset:0;stroke-opacity:1" />
    <path
       inkscape:connector-curvature="0"
       id="path2701"
       d="m 70.379166,118.00938 h 9.525"
       style="fill:none;stroke:#000000;stroke-width:0.26458332;stroke-linecap:butt;stroke-linejoin:miter;stroke-miterlimit:4;stroke-dasharray:0.79374995, 0.79374995;stroke-dashoffset:0;stroke-opacity:1" />
    <path
       inkscape:connector-curvature="0"
       id="path2701-3"
       d="m 101.13483,126.24438 h 9.525"
       style="fill:none;stroke:#000000;stroke-width:0.26458332;stroke-linecap:butt;stroke-linejoin:miter;stroke-miterlimit:4;stroke-dasharray:0.79374996, 0.79374996;stroke-dashoffset:0;stroke-opacity:1" />
    <g
       ns0:jacobian_sqrt="0.705556"
       ns0:alignment="middle center"
       ns0:scale="2.0"
       ns0:preamble="C:\\Users\\mateu\\AppData\\Roaming\\inkscape\\extensions\\textext\\default_packages.tex"
       ns0:text="$x$ \n$E$\n$E_{F}$\n$\\phi_1$\n$\\phi_2$\n$W_1$\n$W_2$\n"
       ns0:pdfconverter="pstoedit"
       ns0:texconverter="xelatex"
       ns0:version="0.9.0-dev2"
       word-spacing="normal"
       letter-spacing="normal"
       font-size-adjust="none"
       font-stretch="normal"
       font-weight="normal"
       font-variant="normal"
       font-style="normal"
       stroke-miterlimit="10.433"
       xml:space="preserve"
       transform="matrix(0.705556,0,0,-0.705556,-47.993794,551.54784)"
       id="g3042"
       style="font-style:normal;font-variant:normal;font-weight:normal;font-stretch:normal;letter-spacing:normal;word-spacing:normal;text-anchor:start;fill:none;fill-opacity:1;fill-rule:evenodd;stroke:#000000;stroke-linecap:butt;stroke-linejoin:miter;stroke-miterlimit:10.43299961;stroke-dasharray:none;stroke-dashoffset:0;stroke-opacity:1">



<g
   id="g3928"
   transform="translate(0.18749988,1.1249993)" />
<path
   id="path2925"
   d="m 179.11932,623.2738 v 0 0 0 0.008 0 0 0 0 0.008 h 0.008 v 0 0.008 0 0.008 0.008 0 0.008 h 0.008 v 0.008 0.0157 0 0.008 0 l 0.008,0.008 v 0 0.008 0 0.008 0 0 0 0 0 0.008 0 0 0 0 0 c 0,0.008 0,0.0783 -0.094,0.0783 -0.0783,0 -0.0861,-0.0235 -0.11746,-0.1566 l -0.45414,-1.7931 c -1.23717,-0.0391 -2.3882,-1.07273 -2.3882,-2.13763 0,-0.73603 0.54811,-1.35462 1.50339,-1.4016 l 0.0391,0.16444 c -0.46981,0.0235 -1.03358,0.29754 -1.03358,1.08056 0,0.93178 0.67339,2.02017 1.83226,2.12196 l -0.79868,-3.20252 -0.0391,-0.16444 c -0.0626,-0.24273 -0.11745,-0.4933 -0.18009,-0.73603 -0.094,-0.36019 -0.17227,-0.65773 -0.17227,-0.68122 0,-0.0783 0.0548,-0.0861 0.094,-0.0861 0.0392,0 0.0548,0.008 0.0783,0.0313 0.0157,0.0157 0.0626,0.20358 0.0861,0.3132 l 0.29754,1.15886 0.0392,0.16444 0.80651,3.20252 c 0.58726,-0.0313 1.03358,-0.3915 1.03358,-1.07272 0,-0.92396 -0.67339,-2.03584 -1.84009,-2.1298 l -0.0392,-0.16444 c 1.25283,0.0313 2.3882,1.08839 2.3882,2.1298 0,0.61075 -0.415,1.33113 -1.50339,1.40943 z"
   inkscape:connector-curvature="0"
   style="fill:#000000;stroke-width:0" />
<path
   id="path2927"
   d="m 182.18873,620.35316 v 0.008 0.008 0.008 0.008 0 0.008 0.008 0.008 0 0.008 0.008 0 0.008 0 0.008 0 0.008 0 l -0.008,0.008 v 0.008 0.008 h -0.008 v 0.008 0.008 h -0.008 v 0.008 h -0.008 -0.008 v 0.008 h -0.008 -0.008 -0.008 -0.008 v 0 h -0.008 v 0.008 h -0.008 v 0 h -0.008 -0.008 v 0 h -0.008 -0.008 -0.008 v 0 h -0.008 -0.008 -0.008 -0.008 -0.008 c -0.34453,-0.34453 -0.84566,-0.35236 -1.07273,-0.35236 v -0.19575 c 0.13311,0 0.4933,0 0.79867,0.1566 v -2.7797 c 0,-0.18009 0,-0.25056 -0.5481,-0.25056 h -0.21142 v -0.19576 c 0.10179,0.008 0.77519,0.0235 0.97877,0.0235 0.16443,0 0.85348,-0.0157 0.97877,-0.0235 v 0.19576 h -0.21142 c -0.54811,0 -0.54811,0.0705 -0.54811,0.25056 z"
   inkscape:connector-curvature="0"
   style="fill:#000000;stroke-width:0" />
<path
   id="path2929"
   d="m 212.26235,614.05347 v 0 0 0 0.008 0 0 0 0 0.008 0 0 0.008 0 0.008 0.008 h 0.008 v 0.008 0 0.008 0.0157 h 0.008 v 0.008 0 0.008 0 0.008 0 0.008 0 0 0 h 0.008 v 0 0.008 0 0 0 0 0 c 0,0.008 0,0.0783 -0.094,0.0783 -0.0783,0 -0.0861,-0.0235 -0.11745,-0.1566 l -0.45415,-1.7931 c -1.24499,-0.0391 -2.38819,-1.07273 -2.38819,-2.13763 0,-0.73603 0.54811,-1.35462 1.49555,-1.4016 l 0.0392,0.16444 c -0.4698,0.0235 -1.02574,0.29754 -1.02574,1.08056 0,0.93178 0.66556,2.02017 1.83225,2.12196 l -0.80651,-3.20252 -0.0392,-0.16444 c -0.0626,-0.24273 -0.11745,-0.4933 -0.18009,-0.73603 -0.094,-0.36019 -0.17226,-0.65773 -0.17226,-0.68122 0,-0.0783 0.0548,-0.0861 0.094,-0.0861 0.0392,0 0.0548,0.008 0.0783,0.0313 0.0157,0.0157 0.0626,0.20358 0.0861,0.3132 l 0.29755,1.15886 0.0391,0.16444 0.8065,3.20252 c 0.59509,-0.0313 1.03358,-0.3915 1.03358,-1.07272 0,-0.92396 -0.66556,-2.03584 -1.84008,-2.1298 l -0.0391,-0.16444 c 1.26065,0.0313 2.38819,1.08839 2.38819,2.1298 0,0.61075 -0.415,1.33113 -1.49556,1.40943 z"
   inkscape:connector-curvature="0"
   style="fill:#000000;stroke-width:0" />
<path
   id="path2931"
   d="m 216.26355,608.66633 h -0.18792 c -0.0157,-0.12528 -0.0705,-0.44632 -0.14094,-0.50113 -0.047,-0.0313 -0.46981,-0.0313 -0.54811,-0.0313 h -1.00226 c 0.5716,0.50896 0.76735,0.65773 1.09622,0.91613 0.39934,0.32103 0.78301,0.65773 0.78301,1.17452 0,0.65773 -0.58726,1.0649 -1.28414,1.0649 -0.68122,0 -1.13537,-0.47764 -1.13537,-0.97877 0,-0.27405 0.22707,-0.30537 0.28972,-0.30537 0.12528,0 0.28971,0.094 0.28971,0.28971 0,0.10179 -0.0391,0.28972 -0.32887,0.28972 0.17227,0.3915 0.54028,0.50896 0.79868,0.50896 0.54811,0 0.83782,-0.42283 0.83782,-0.86915 0,-0.46981 -0.34452,-0.84565 -0.51679,-1.04141 l -1.32329,-1.2998 c -0.047,-0.047 -0.047,-0.0548 -0.047,-0.21142 h 2.24725 z"
   inkscape:connector-curvature="0"
   style="fill:#000000;stroke-width:0" />




<g
   id="g3677"
   transform="matrix(0.70555602,0,0,0.70555602,25.273106,195.56963)"
   xml:space="preserve"
   stroke-miterlimit="10.433"
   font-style="normal"
   font-variant="normal"
   font-weight="normal"
   font-stretch="normal"
   font-size-adjust="none"
   letter-spacing="normal"
   word-spacing="normal"
   ns0:version="0.9.0-dev2"
   ns0:texconverter="pdflatex"
   ns0:pdfconverter="pstoedit"
   ns0:text="$E_F$\n$E$\n$x$\n$0$\n$L$\n$W_1$\n$W_2$\n\\textsf{v\xc3\xa1cuo}\n$e^{-}$\n$-eV(x)$"
   ns0:preamble="C:\\Users\\mateu\\AppData\\Roaming\\inkscape\\extensions\\textext\\default_packages.tex"
   ns0:scale="2.0"
   ns0:alignment="middle center"
   inkscapeversion="0.92.3"
   ns0:jacobian_sqrt="0.705556"
   style="font-style:normal;font-variant:normal;font-weight:normal;font-stretch:normal;letter-spacing:normal;word-spacing:normal;text-anchor:start;fill:none;fill-opacity:1;fill-rule:evenodd;stroke:#000000;stroke-linecap:butt;stroke-linejoin:miter;stroke-miterlimit:10.43299961;stroke-dasharray:none;stroke-dashoffset:0;stroke-opacity:1">
<path
   d="m 142.97187,537.98138 h 3.29 l 0.12,0.61 h -3.28 l 0.49,2.35 h 1.38 c 0.12,0 0.24,-0.01 0.36,-0.01 h 1.82 l 0.14,0.65 h -4.44 l -1.47,-6.87 h 4.59 l 0.15,0.71 h -1.26 c -0.12,0 -0.24,-0.01 -0.36,-0.01 h -2.08 z"
   id="path3629"
   inkscape:connector-curvature="0"
   style="fill:#000000;stroke-width:0" />
<path
   d="m 148.24187,535.40138 h 2.24 l 0.1,0.46 h -2.24 l 0.36,1.69 h 0.97 c 0.08,0 0.17,-0.01 0.25,-0.01 h 1.33 l 0.11,0.49 h -3.26 l -1.03,-4.81 h 0.71 z"
   id="path3631"
   inkscape:connector-curvature="0"
   style="fill:#000000;stroke-width:0" />
<path
   d="m 156.02275,628.93079 h 3.29 l 0.13,0.61 h -3.29 l 0.5,2.35 h 1.37 c 0.12,0 0.24,-0.01 0.36,-0.01 h 1.83 l 0.14,0.65 h -4.45 l -1.47,-6.87 h 4.59 l 0.15,0.71 h -1.26 c -0.12,0 -0.24,-0.01 -0.36,-0.01 h -2.08 z"
   id="path3633"
   inkscape:connector-curvature="0"
   style="fill:#000000;stroke-width:0" />
<polygon
   transform="translate(172.87903,-160.47684)"
   points="174.93,657.23 176.77,659.1 177.87,657.23 178.7,657.23 177.19,659.51 179.47,661.65 178.65,661.65 176.97,660.01 175.93,661.65 175.1,661.65 176.53,659.51 174.11,657.23 "
   id="polygon3635"
   style="fill:#000000;stroke-width:0" />
<path
   d="m 213.85058,497.56303 v 0.11097 0.11097 0.11838 l -0.007,0.11097 -0.007,0.11837 -0.007,0.11837 -0.0148,0.11837 -0.0148,0.11837 -0.0148,0.11837 -0.0222,0.11837 -0.0296,0.12577 -0.037,0.11097 -0.037,0.11837 -0.0148,0.0592 -0.0222,0.0592 -0.0296,0.0592 -0.0222,0.0518 -0.0222,0.0592 -0.0296,0.0592 c -0.30333,0.54746 -0.8138,0.72502 -1.1911,0.72502 l -0.007,-0.45129 c 0.57705,0 0.7694,-0.55486 0.82119,-0.68802 0.14057,-0.4143 0.14057,-0.90258 0.14057,-1.36126 0,-0.48088 0,-0.94696 -0.13317,-1.41305 -0.19235,-0.66583 -0.58445,-0.7842 -0.82119,-0.7842 v 0 c -0.38471,0 -0.68803,0.28113 -0.83599,0.8138 -0.11098,0.41429 -0.12577,0.81379 -0.12577,1.38345 0,0.46608 0,0.90997 0.12577,1.30947 0.0444,0.14056 0.22934,0.73981 0.82859,0.73981 l 0.007,0.45129 c -0.4365,0 -0.94697,-0.19975 -1.25029,-0.85079 -0.24414,-0.54006 -0.28113,-1.14671 -0.28113,-1.73856 0,-0.57705 0.0296,-1.11712 0.25154,-1.64979 0.29592,-0.71022 0.85078,-0.90257 1.27248,-0.90257 0.54006,0 1.00614,0.29593 1.24288,0.8064 0.22195,0.48088 0.28853,0.96176 0.28853,1.74596 z"
   id="path3637"
   inkscape:connector-curvature="0"
   style="fill:#000000;stroke-width:0" />
<path
   d="m 273.56075,499.5191 h -0.65843 l -1.08753,-5.10472 h 2.98885 l 0.10357,0.48828 c -0.65843,-0.007 -1.32426,-0.0148 -1.9827,-0.0148 h -0.34771 z"
   id="path3639"
   inkscape:connector-curvature="0"
   style="fill:#000000;stroke-width:0" />
<path
   d="m 203.33668,565.90378 h -0.72 l -1.84,-3.66 c -0.19,-0.36 -1,-1.98 -1.17,-2.5 h -0.01 c 0.01,0.08 0.01,0.1 0.01,0.36 0,0.11 0,0.69 -0.12,2.28 l -0.27,3.52 h -0.81 c -0.06,-0.13 -0.65,-1.28 -0.66,-1.29 l -1.58,-3.2 c -0.43,-0.9 -0.68,-1.47 -0.73,-1.65 h -0.01 c 0.01,0.07 0.01,0.37 0.01,0.47 0,0.75 -0.05,1.51 -0.11,2.26 l -0.26,3.41 h -0.86 l 0.56,-6.9 h 0.81 l 1.56,3.11 c 0.14,0.28 1.29,2.56 1.44,3.03 h 0.01 v -0.3 c 0,-0.42 0.06,-1.51 0.11,-2.14 l 0.28,-3.7 h 0.86 z"
   id="path3641"
   inkscape:connector-curvature="0"
   style="fill:#000000;stroke-width:0" />
<path
   d="m 204.25668,562.22378 h -0.15 c -0.46,-0.42 -1.03,-0.45 -1.45,-0.46 v -0.44 c 0.27,0.01 0.62,0.02 0.97,0.16 v -3.53 h -0.93 v -0.44 h 2.49 v 0.44 h -0.93 z"
   id="path3643"
   inkscape:connector-curvature="0"
   style="fill:#000000;stroke-width:0" />
<path
   d="m 285.13107,562.65753 h -0.73 l -1.83,-3.66 c -0.19,-0.36 -1,-1.98 -1.18,-2.5 h -0.01 c 0.01,0.08 0.01,0.1 0.01,0.36 0,0.11 0,0.69 -0.12,2.28 l -0.27,3.52 h -0.8 c -0.07,-0.13 -0.65,-1.28 -0.66,-1.29 l -1.58,-3.2 c -0.44,-0.9 -0.69,-1.47 -0.74,-1.65 h -0.01 c 0.01,0.07 0.01,0.37 0.01,0.47 0,0.75 -0.05,1.51 -0.11,2.26 l -0.26,3.41 h -0.85 l 0.55,-6.9 h 0.81 l 1.57,3.11 c 0.14,0.28 1.28,2.56 1.43,3.03 h 0.01 v -0.3 c 0,-0.42 0.06,-1.51 0.11,-2.14 l 0.28,-3.7 h 0.87 z"
   id="path3645"
   inkscape:connector-curvature="0"
   style="fill:#000000;stroke-width:0" />
<path
   d="m 285.78107,554.80753 h -0.03 l -0.03,-0.01 h -0.04 -0.03 -0.03 -0.03 -0.03 -0.03 -0.8 l 1.08,0.95 c 0.13,0.11 0.47,0.37 0.6,0.48 0.31,0.28 0.72,0.64 0.72,1.25 0,0.78 -0.58,1.5 -1.58,1.5 -0.74,0 -1.2,-0.4 -1.44,-1.11 l 0.33,-0.41 c 0.16,0.59 0.4,1.04 1.01,1.04 0.59,0 1.04,-0.41 1.04,-1.04 0,-0.57 -0.35,-0.9 -0.77,-1.3 -0.14,-0.14 -0.51,-0.45 -0.66,-0.59 -0.2,-0.18 -0.69,-0.64 -0.89,-0.82 v -0.48 h 2.96 v 0.54 z"
   id="path3647"
   inkscape:connector-curvature="0"
   style="fill:#000000;stroke-width:0" />
<path
   d="m 234.94503,512.48258 h -0.6292 l -0.65437,-1.73659 c -0.17617,-0.46142 -0.43624,-1.13256 -0.50336,-1.52686 h -0.008 c -0.0503,0.30201 -0.26845,0.87249 -0.35235,1.099 l -0.81376,2.16445 h -0.65437 l 1.44296,-3.70809 h 0.73826 z"
   id="path3649"
   inkscape:connector-curvature="0"
   style="fill:#000000;stroke-width:0" />
<polygon
   transform="matrix(0.8389326,0,0,0.8389326,35.05256,-42.597188)"
   points="240.36,662.47 240.97,662.47 242.47,664.13 241.69,664.13 "
   id="polygon3651"
   style="fill:#000000;stroke-width:0" />
<path
   d="m 238.40982,511.19062 -0.008,0.0755 v 0.0755 l -0.008,0.0755 -0.0168,0.0755 -0.008,0.0755 -0.0252,0.0671 -0.0168,0.0671 -0.0252,0.0671 -0.0252,0.0671 -0.0336,0.0587 -0.0335,0.0587 -0.0336,0.0587 -0.0419,0.0587 -0.0419,0.0503 -0.0419,0.0503 -0.042,0.0503 -0.0503,0.0503 -0.0503,0.0419 -0.0503,0.042 -0.0503,0.0335 -0.0587,0.0336 -0.0587,0.0336 -0.0587,0.0336 -0.0587,0.0252 -0.0671,0.0252 -0.0671,0.0168 -0.0587,0.0252 -0.0671,0.008 -0.0755,0.0168 -0.0671,0.008 h -0.0671 l -0.0755,0.008 c -0.5453,0 -0.92282,-0.13423 -1.30873,-0.36074 l 0.0419,-0.55369 c 0.43625,0.3104 0.85572,0.41946 1.26679,0.41946 0.3943,0 0.72987,-0.33557 0.72987,-0.94799 v -0.36074 c -1.2584,-0.0168 -2.31545,-0.36913 -2.31545,-1.099 0,-0.36074 0.22651,-1.03189 0.94799,-1.03189 0.11745,0 0.90605,0.0168 1.39263,0.38591 l -0.3104,0.27685 c -0.24329,-0.15101 -0.56209,-0.1594 -0.65437,-0.1594 -0.40269,0 -0.78021,0.19295 -0.78021,0.54531 0,0.57886 1.35907,0.63758 1.71981,0.65436 v -0.51175 c 0,-0.15939 0,-0.36913 -0.28523,-0.52852 l 0.3104,-0.27685 v -0.30202 h 0.6292 z"
   id="path3653"
   inkscape:connector-curvature="0"
   style="fill:#000000;stroke-width:0" />
<path
   d="m 242.5122,512.26445 -0.042,0.0252 -0.0419,0.0252 -0.0503,0.0252 -0.0419,0.0168 -0.0419,0.0252 -0.0336,0.0168 -0.0419,0.0168 -0.042,0.0252 -0.0336,0.0168 -0.0419,0.0168 -0.0419,0.008 -0.0336,0.0168 -0.0755,0.0252 -0.0755,0.0252 -0.0671,0.0168 -0.0755,0.0168 -0.0755,0.008 -0.0839,0.0168 h -0.0419 -0.0336 l -0.0419,0.008 h -0.042 -0.0503 -0.0419 -0.042 l -0.0503,0.008 c -1.16611,0 -1.83726,-1.0151 -1.83726,-1.99666 0,-1.03188 0.75504,-1.93793 1.80371,-1.93793 0.45302,0 0.91443,0.11745 1.35907,0.41947 l -0.0503,0.56208 c -0.41946,-0.33557 -0.87249,-0.45302 -1.30034,-0.45302 -0.69632,0 -1.16612,0.60403 -1.16612,1.41779 0,0.64598 0.31041,1.45136 1.19967,1.45136 0.43625,0 0.72149,-0.0671 1.1829,-0.36913 z"
   id="path3655"
   inkscape:connector-curvature="0"
   style="fill:#000000;stroke-width:0" />
<path
   d="m 246.43841,512.48258 h -0.65437 v -2.41613 c 0,-0.6292 -0.4698,-0.92283 -0.99833,-0.92283 -0.59564,0 -0.65437,0.21813 -0.65437,0.57887 v 2.76009 h -0.65437 v -2.79365 c 0,-0.60403 0.19296,-0.99833 0.88927,-0.99833 0.44464,0 1.03189,0.12584 1.44297,0.48658 v -0.40269 h 0.6292 z"
   id="path3657"
   inkscape:connector-curvature="0"
   style="fill:#000000;stroke-width:0" />
<path
   d="m 251.04415,510.61176 v 0.10067 l -0.008,0.10906 -0.0168,0.10067 -0.0168,0.10067 -0.0168,0.0923 -0.0252,0.10067 -0.0335,0.0923 -0.0336,0.0923 -0.0336,0.0839 -0.0419,0.0923 -0.0419,0.0839 -0.0503,0.0755 -0.0503,0.0839 -0.0587,0.0755 -0.0587,0.0671 -0.0587,0.0755 -0.0671,0.0671 -0.0671,0.0587 -0.0671,0.0587 -0.0671,0.0587 -0.0755,0.0503 -0.0755,0.0503 -0.0839,0.0419 -0.0755,0.042 -0.0839,0.0335 -0.0839,0.0336 -0.0923,0.0252 -0.0839,0.0252 -0.0923,0.0168 -0.0923,0.008 -0.0923,0.008 -0.0923,0.008 -0.008,-0.51174 c 0.58726,0 1.19129,-0.43625 1.19129,-1.4178 0,-0.98155 -0.57048,-1.47652 -1.19129,-1.47652 v 0 c -0.57047,0 -1.1745,0.4698 -1.1745,1.47652 0,1.00672 0.63759,1.4178 1.1745,1.4178 l 0.008,0.51174 c -1.02349,0 -1.83726,-0.92282 -1.83726,-2.01343 0,-1.09901 0.85571,-1.92116 1.82887,-1.92116 1.00672,0 1.84566,0.83893 1.84566,1.92116 z"
   id="path3659"
   inkscape:connector-curvature="0"
   style="fill:#000000;stroke-width:0" />








</g></g>    <path
       style="fill:none;stroke:#000000;stroke-width:0.2;stroke-linecap:butt;stroke-linejoin:miter;stroke-miterlimit:4;stroke-dasharray:none;stroke-opacity:1"
       d="m 75.286747,160.03199 v 3.83807"
       id="path911"
       inkscape:connector-curvature="0" />
    <path
       style="fill:none;stroke:#000000;stroke-width:0.2;stroke-linecap:butt;stroke-linejoin:miter;stroke-miterlimit:4;stroke-dasharray:none;stroke-opacity:1"
       d="m 105.76098,160.03199 v 3.83807"
       id="path911-1"
       inkscape:connector-curvature="0" />
    <g
       style="font-style:normal;font-variant:normal;font-weight:normal;font-stretch:normal;letter-spacing:normal;word-spacing:normal;text-anchor:start;fill:none;fill-opacity:1;fill-rule:evenodd;stroke:#000000;stroke-linecap:butt;stroke-linejoin:miter;stroke-miterlimit:10.43299961;stroke-dasharray:none;stroke-dashoffset:0;stroke-opacity:1"
       id="g991"
       transform="matrix(0.2852159,0,0,-0.2852159,32.162103,353.72059)"
       xml:space="preserve"
       stroke-miterlimit="10.433"
       font-style="normal"
       font-variant="normal"
       font-weight="normal"
       font-stretch="normal"
       font-size-adjust="none"
       letter-spacing="normal"
       word-spacing="normal"
       ns0:version="0.9.0-dev2"
       ns0:texconverter="xelatex"
       ns0:pdfconverter="pstoedit"
       ns0:text="$0$\n$L$"
       ns0:preamble="C:\\Users\\mateu\\AppData\\Roaming\\inkscape\\extensions\\textext\\default_packages.tex"
       ns0:scale="2.0"
       ns0:alignment="middle center"
       inkscapeversion="0.92.3"
       ns0:jacobian_sqrt="0.705556">


</g>    <g
       ns0:jacobian_sqrt="0.705556"
       inkscapeversion="0.92.3"
       ns0:alignment="middle center"
       ns0:scale="2.0"
       ns0:preamble="C:\\Users\\mateu\\AppData\\Roaming\\inkscape\\extensions\\textext\\default_packages.tex"
       ns0:text="$1 2$\n$-eV(x)$"
       ns0:pdfconverter="pstoedit"
       ns0:texconverter="pdflatex"
       ns0:version="0.9.0-dev2"
       word-spacing="normal"
       letter-spacing="normal"
       font-size-adjust="none"
       font-stretch="normal"
       font-weight="normal"
       font-variant="normal"
       font-style="normal"
       stroke-miterlimit="10.433"
       xml:space="preserve"
       transform="matrix(0.705556,0,0,-0.705556,-29.083152,636.40741)"
       id="content"
       style="font-style:normal;font-variant:normal;font-weight:normal;font-stretch:normal;letter-spacing:normal;word-spacing:normal;text-anchor:start;fill:none;fill-opacity:1;fill-rule:evenodd;stroke:#000000;stroke-linecap:butt;stroke-linejoin:miter;stroke-miterlimit:10.43299961;stroke-dasharray:none;stroke-dashoffset:0;stroke-opacity:1">
<path
   id="path3982"
   d="m 136.53999,678.26032 h -0.12047 c -0.34935,-0.36743 -0.8493,-0.38549 -1.13842,-0.39151 v -0.34936 c 0.19878,0.006 0.48789,0.0181 0.78907,0.14455 v -3.11409 h -0.75293 v -0.34936 h 1.97567 v 0.34936 h -0.75292 z"
   inkscape:connector-curvature="0"
   style="fill:#000000;stroke-width:0" />
<path
   id="path3984"
   d="m 200.2549,675.33631 -0.75312,-0.74705 v -0.38871 h 2.41728 v 0.43123 h -1.09931 c -0.0729,0 -0.14577,-0.006 -0.21866,-0.006 h -0.66202 c 0.19436,0.17006 0.65595,0.6195 0.84423,0.79564 0.1154,0.10932 0.41908,0.36441 0.53448,0.47373 0.27331,0.26724 0.60128,0.58915 0.60128,1.09932 0,0.69847 -0.49196,1.29975 -1.2876,1.29975 -0.69239,0 -1.0325,-0.46767 -1.17827,-0.99 0.0729,-0.10325 0.10325,-0.13969 0.1154,-0.15791 0.0122,-0.0122 0.0729,-0.0911 0.13362,-0.17613 0.12147,0.46766 0.29153,0.93533 0.84422,0.93533 0.56485,0 0.8746,-0.44945 0.8746,-0.91711 0,-0.51626 -0.34012,-0.86245 -0.69846,-1.22079 z"
   inkscape:connector-curvature="0"
   style="fill:#000000;stroke-width:0" />





<g
   id="g4080"
   style="fill:#1c8900;fill-opacity:1;stroke:#1c8900;stroke-opacity:1"
   transform="translate(3.7785994,2.2539014)"><path
     style="fill:#1c8900;fill-opacity:1;stroke:#1c8900;stroke-width:0;stroke-opacity:1"
     inkscape:connector-curvature="0"
     d="m 160.28318,722.68911 h 0.0121 0.0121 0.012 0.008 0.004 0.008 l 0.004,0.004 h 0.008 0.004 0.008 l 0.004,0.004 h 0.004 0.008 l 0.004,0.004 0.004,0.004 h 0.004 l 0.004,0.004 0.004,0.004 h 0.004 l 0.004,0.004 0.004,0.004 v 0.004 0 l 0.004,0.004 v 0.004 0 0.004 l 0.004,0.004 v 0 0.004 0.004 0.004 0 l 0.004,0.004 v 0.004 0.004 0.004 c 0,0.0803 -0.0723,0.0803 -0.14054,0.0803 h -2.16849 c -0.0683,0 -0.14055,0 -0.14055,-0.0803 0,-0.0803 0.0723,-0.0803 0.14055,-0.0803 z"
     id="path3986" /><path
     style="fill:#1c8900;fill-opacity:1;stroke:#1c8900;stroke-width:0;stroke-opacity:1"
     inkscape:connector-curvature="0"
     d="m 162.60025,722.64494 0.004,0.008 v 0.004 0.008 l 0.004,0.008 v 0.008 l 0.004,0.0121 v 0.008 0.008 l 0.004,0.012 v 0.008 l 0.004,0.012 v 0.012 l 0.004,0.0201 0.004,0.0241 v 0.0241 l 0.004,0.0241 0.004,0.0281 v 0.0241 l 0.004,0.0241 v 0.0241 0.0241 0.0241 c 0,0.0723 0,0.2811 -0.1285,0.44173 -0.0763,0.0924 -0.22087,0.17669 -0.42165,0.17669 -0.51803,0 -1.02803,-0.57826 -1.02803,-1.16054 0,-0.40961 0.26504,-0.72283 0.6907,-0.72283 0.26906,0 0.52205,0.10441 0.67866,0.2048 0.008,0.0522 0.0201,0.20078 0.0281,0.26102 -0.14456,-0.1044 -0.38952,-0.22488 -0.65456,-0.22488 -0.26905,0 -0.45778,0.2048 -0.45778,0.52606 0,0.0522 0,0.0964 0.0121,0.14858 l 0.0683,0.22087 c 0.14055,0.31724 0.39355,0.50196 0.6144,0.50196 0.37749,0 0.37749,-0.37346 0.37749,-0.50196 h -0.99189 l -0.0683,-0.22087 z"
     id="path3988" /><path
     style="fill:#1c8900;fill-opacity:1;stroke:#1c8900;stroke-width:0;stroke-opacity:1"
     inkscape:connector-curvature="0"
     d="m 165.73652,724.54036 h -0.31322 l -0.8152,-1.3533 c -0.5903,-0.97582 -0.63448,-1.08826 -0.65054,-1.12841 h -0.004 c 0,0.0883 0,0.10842 -0.0522,0.45377 -0.0241,0.16063 -0.0482,0.32527 -0.0763,0.48188 l -0.27307,1.54606 h -0.37346 l 0.50196,-2.77085 h 0.36945 z"
     id="path3990" /><path
     style="fill:#1c8900;fill-opacity:1;stroke:#1c8900;stroke-width:0;stroke-opacity:1"
     inkscape:connector-curvature="0"
     d="m 166.93321,724.76122 -0.0161,-0.008 -0.012,-0.0121 -0.0121,-0.0161 -0.0161,-0.0121 -0.0161,-0.0161 -0.0161,-0.0161 -0.0161,-0.0161 -0.0161,-0.0161 -0.0161,-0.0201 -0.0201,-0.0161 -0.0201,-0.0201 -0.0161,-0.0241 -0.0201,-0.0201 -0.0201,-0.0241 -0.0201,-0.0241 -0.0201,-0.0241 -0.0201,-0.0281 -0.0201,-0.0241 -0.0201,-0.0322 -0.0201,-0.0281 -0.0201,-0.0321 -0.0201,-0.0321 -0.0201,-0.0321 -0.0201,-0.0321 -0.0201,-0.0362 -0.0161,-0.0402 -0.0201,-0.0362 -0.0201,-0.0402 -0.0201,-0.0402 -0.0161,-0.0442 -0.0201,-0.0442 -0.0161,-0.0442 c -0.16064,-0.42567 -0.18874,-0.85133 -0.18874,-1.14047 0,-1.28905 0.57826,-1.81911 0.77102,-1.99581 h 0.24093 c -0.18873,0.19276 -0.69873,0.70676 -0.69873,1.99581 0,0.22488 0.012,0.69071 0.17669,1.16055 0.16465,0.4618 0.38953,0.70274 0.52204,0.83125 z"
     id="path3992" /><polygon
     transform="matrix(0.40157155,0,0,0.40157155,92.59027,457.84464)"
     style="fill:#1c8900;fill-opacity:1;stroke:#1c8900;stroke-width:0;stroke-opacity:1"
     points="188.72,659.51 186.3,657.23 187.12,657.23 188.96,659.1 190.06,657.23 190.88,657.23 189.38,659.51 191.66,661.65 190.84,661.65 189.16,660.01 188.12,661.65 187.29,661.65 "
     id="polygon3994" /><path
     style="fill:#1c8900;fill-opacity:1;stroke:#1c8900;stroke-width:0;stroke-opacity:1"
     inkscape:connector-curvature="0"
     d="m 170.08153,720.77361 0.012,0.0121 0.0161,0.012 0.0121,0.0121 0.0161,0.0161 0.0121,0.0161 0.0161,0.0121 0.0201,0.0161 0.0161,0.0201 0.0161,0.0161 0.0201,0.0201 0.0161,0.0201 0.0201,0.0201 0.0201,0.0241 0.0161,0.0241 0.0201,0.0241 0.0201,0.0241 0.0201,0.0241 0.0201,0.0281 0.0201,0.0281 0.0201,0.0321 0.0201,0.0281 0.0201,0.0321 0.0201,0.0362 0.0201,0.0321 0.0201,0.0362 0.0201,0.0362 0.0201,0.0402 0.0201,0.0402 0.0161,0.0402 0.0201,0.0442 0.0161,0.0402 0.0201,0.0482 c 0.16063,0.42567 0.18873,0.84732 0.18873,1.14047 0,1.28904 -0.57826,1.81912 -0.77101,1.99179 h -0.24496 c 0.19275,-0.18874 0.70275,-0.70275 0.70275,-1.99179 0,-0.22488 -0.012,-0.69071 -0.17669,-1.16055 -0.16465,-0.46582 -0.39354,-0.70275 -0.52606,-0.83527 z"
     id="path3996" /></g>
</g>  </g>
</svg>
