<?xml version="1.0" encoding="UTF-8" standalone="no"?>
<!-- Created with Inkscape (http://www.inkscape.org/) -->

<svg
   xmlns:ns1="http://www.iki.fi/pav/software/textext/"
   xmlns:osb="http://www.openswatchbook.org/uri/2009/osb"
   xmlns:dc="http://purl.org/dc/elements/1.1/"
   xmlns:cc="http://creativecommons.org/ns#"
   xmlns:rdf="http://www.w3.org/1999/02/22-rdf-syntax-ns#"
   xmlns:svg="http://www.w3.org/2000/svg"
   xmlns="http://www.w3.org/2000/svg"
   xmlns:xlink="http://www.w3.org/1999/xlink"
   xmlns:sodipodi="http://sodipodi.sourceforge.net/DTD/sodipodi-0.dtd"
   xmlns:inkscape="http://www.inkscape.org/namespaces/inkscape"
   width="84.185616mm"
   height="79.718819mm"
   viewBox="0 0 84.185617 79.718821"
   version="1.1"
   id="svg8"
   inkscape:version="0.92.3 (2405546, 2018-03-11)"
   sodipodi:docname="dm.svg">
  <sodipodi:namedview
     id="base"
     pagecolor="#ffffff"
     bordercolor="#666666"
     borderopacity="1.0"
     inkscape:pageopacity="0.0"
     inkscape:pageshadow="2"
     inkscape:zoom="16"
     inkscape:cx="39.976439"
     inkscape:cy="125.29709"
     inkscape:document-units="mm"
     inkscape:current-layer="layer1"
     showgrid="true"
     inkscape:snap-grids="true"
     showguides="false"
     inkscape:window-width="1871"
     inkscape:window-height="1025"
     inkscape:window-x="49"
     inkscape:window-y="27"
     inkscape:window-maximized="1" />
  <defs
     id="defs2">
    <marker
       inkscape:isstock="true"
       style="overflow:visible"
       id="Arrow1Send"
       refX="0"
       refY="0"
       orient="auto"
       inkscape:stockid="Arrow1Send">
      <path
         inkscape:connector-curvature="0"
         transform="matrix(-0.2,0,0,-0.2,-1.2,0)"
         style="fill:#000000;fill-opacity:1;fill-rule:evenodd;stroke:#000000;stroke-width:1.00000003pt;stroke-opacity:1"
         d="M 0,0 5,-5 -12.5,0 5,5 Z"
         id="path1172" />
    </marker>
    <marker
       inkscape:stockid="Arrow1Send"
       orient="auto"
       refY="0"
       refX="0"
       id="marker17673"
       style="overflow:visible"
       inkscape:isstock="true">
      <path
         inkscape:connector-curvature="0"
         id="path17671"
         d="M 0,0 5,-5 -12.5,0 5,5 Z"
         style="fill:#000000;fill-opacity:1;fill-rule:evenodd;stroke:#000000;stroke-width:1.00000003pt;stroke-opacity:1"
         transform="matrix(-0.2,0,0,-0.2,-1.2,0)" />
    </marker>
    <marker
       inkscape:stockid="Arrow2Send"
       orient="auto"
       refY="0"
       refX="0"
       id="marker1169"
       style="overflow:visible"
       inkscape:isstock="true">
      <path
         inkscape:connector-curvature="0"
         id="path925"
         style="fill:#c10000;fill-opacity:1;fill-rule:evenodd;stroke:#c10000;stroke-width:0.625;stroke-linejoin:round;stroke-opacity:1"
         d="M 8.7185878,4.0337352 -2.2072895,0.01601326 8.7185884,-4.0017078 c -1.7454984,2.3720609 -1.7354408,5.6174519 -6e-7,8.035443 z"
         transform="matrix(-0.3,0,0,-0.3,0.69,0)" />
    </marker>
    <marker
       inkscape:stockid="Arrow1Mend"
       orient="auto"
       refY="0"
       refX="0"
       id="Arrow1Mend"
       style="overflow:visible"
       inkscape:isstock="true">
      <path
         inkscape:connector-curvature="0"
         id="path901"
         d="M 0,0 5,-5 -12.5,0 5,5 Z"
         style="fill:#000000;fill-opacity:1;fill-rule:evenodd;stroke:#000000;stroke-width:1.00000003pt;stroke-opacity:1"
         transform="matrix(-0.4,0,0,-0.4,-4,0)" />
    </marker>
    <marker
       inkscape:isstock="true"
       style="overflow:visible"
       id="marker7466"
       refX="0"
       refY="0"
       orient="auto"
       inkscape:stockid="Arrow1Send">
      <path
         transform="matrix(-0.2,0,0,-0.2,-1.2,0)"
         style="fill:#000000;fill-opacity:1;fill-rule:evenodd;stroke:#000000;stroke-width:1.00000003pt;stroke-opacity:1"
         d="M 0,0 5,-5 -12.5,0 5,5 Z"
         id="path7464"
         inkscape:connector-curvature="0" />
    </marker>
    <marker
       inkscape:isstock="true"
       style="overflow:visible"
       id="marker6680"
       refX="0"
       refY="0"
       orient="auto"
       inkscape:stockid="Arrow1Send">
      <path
         transform="matrix(-0.2,0,0,-0.2,-1.2,0)"
         style="fill:#8c3238;fill-opacity:0.22033901;fill-rule:evenodd;stroke:#000000;stroke-width:1.00000003pt;stroke-opacity:1"
         d="M 0,0 5,-5 -12.5,0 5,5 Z"
         id="path6678"
         inkscape:connector-curvature="0" />
    </marker>
    <marker
       inkscape:stockid="Arrow2Send"
       orient="auto"
       refY="0"
       refX="0"
       id="marker6608"
       style="overflow:visible"
       inkscape:isstock="true">
      <path
         id="path6606"
         style="fill:#0d005e;fill-opacity:1;fill-rule:evenodd;stroke:#0d005e;stroke-width:0.625;stroke-linejoin:round;stroke-opacity:1"
         d="M 8.7185878,4.0337352 -2.2072895,0.01601326 8.7185884,-4.0017078 c -1.7454984,2.3720609 -1.7354408,5.6174519 -6e-7,8.035443 z"
         transform="matrix(-0.3,0,0,-0.3,0.69,0)"
         inkscape:connector-curvature="0" />
    </marker>
    <marker
       inkscape:stockid="Arrow2Send"
       orient="auto"
       refY="0"
       refX="0"
       id="marker6586"
       style="overflow:visible"
       inkscape:isstock="true">
      <path
         id="path6584"
         style="fill:#0d005e;fill-opacity:1;fill-rule:evenodd;stroke:#0d005e;stroke-width:0.625;stroke-linejoin:round;stroke-opacity:1"
         d="M 8.7185878,4.0337352 -2.2072895,0.01601326 8.7185884,-4.0017078 c -1.7454984,2.3720609 -1.7354408,5.6174519 -6e-7,8.035443 z"
         transform="matrix(-0.3,0,0,-0.3,0.69,0)"
         inkscape:connector-curvature="0" />
    </marker>
    <marker
       inkscape:collect="always"
       inkscape:isstock="true"
       style="overflow:visible"
       id="Arrow2Send"
       refX="0"
       refY="0"
       orient="auto"
       inkscape:stockid="Arrow2Send">
      <path
         transform="matrix(-0.3,0,0,-0.3,0.69,0)"
         d="M 8.7185878,4.0337352 -2.2072895,0.01601326 8.7185884,-4.0017078 c -1.7454984,2.3720609 -1.7354408,5.6174519 -6e-7,8.035443 z"
         style="fill:#0d005e;fill-opacity:1;fill-rule:evenodd;stroke:#0d005e;stroke-width:0.625;stroke-linejoin:round;stroke-opacity:1"
         id="path6227"
         inkscape:connector-curvature="0" />
    </marker>
    <linearGradient
       id="linearGradient6097"
       inkscape:collect="always">
      <stop
         id="stop6093"
         offset="0"
         style="stop-color:#000000;stop-opacity:1;" />
      <stop
         id="stop6095"
         offset="1"
         style="stop-color:#000000;stop-opacity:0;" />
    </linearGradient>
    <linearGradient
       osb:paint="solid"
       id="linearGradient6051">
      <stop
         id="stop6049"
         offset="0"
         style="stop-color:#000000;stop-opacity:1;" />
    </linearGradient>
    <linearGradient
       osb:paint="solid"
       id="linearGradient6015">
      <stop
         id="stop6013"
         offset="0"
         style="stop-color:#dda000;stop-opacity:1;" />
    </linearGradient>
    <radialGradient
       gradientUnits="userSpaceOnUse"
       gradientTransform="matrix(1,0,0,0.67298695,0,46.867519)"
       r="53.038212"
       fy="143.32002"
       fx="99.836639"
       cy="143.32002"
       cx="99.836639"
       id="radialGradient6109"
       xlink:href="#linearGradient6097"
       inkscape:collect="always" />
    <marker
       inkscape:isstock="true"
       style="overflow:visible"
       id="Arrow1Send-3"
       refX="0"
       refY="0"
       orient="auto"
       inkscape:stockid="Arrow1Send">
      <path
         inkscape:connector-curvature="0"
         transform="matrix(-0.2,0,0,-0.2,-1.2,0)"
         style="fill:#000000;fill-opacity:1;fill-rule:evenodd;stroke:#000000;stroke-width:1.00000003pt;stroke-opacity:1"
         d="M 0,0 5,-5 -12.5,0 5,5 Z"
         id="path6209-6" />
    </marker>
    <marker
       inkscape:stockid="Arrow2Send"
       orient="auto"
       refY="0"
       refX="0"
       id="marker1169-6"
       style="overflow:visible"
       inkscape:isstock="true">
      <path
         id="path925-7"
         style="fill:#c10000;fill-opacity:1;fill-rule:evenodd;stroke:#c10000;stroke-width:0.625;stroke-linejoin:round;stroke-opacity:1"
         d="M 8.7185878,4.0337352 -2.2072895,0.01601326 8.7185884,-4.0017078 c -1.7454984,2.3720609 -1.7354408,5.6174519 -6e-7,8.035443 z"
         transform="matrix(-0.3,0,0,-0.3,0.69,0)"
         inkscape:connector-curvature="0" />
    </marker>
    <marker
       inkscape:stockid="Arrow2Send"
       orient="auto"
       refY="0"
       refX="0"
       id="marker1169-3"
       style="overflow:visible"
       inkscape:isstock="true">
      <path
         inkscape:connector-curvature="0"
         id="path925-6"
         style="fill:#c10000;fill-opacity:1;fill-rule:evenodd;stroke:#c10000;stroke-width:0.625;stroke-linejoin:round;stroke-opacity:1"
         d="M 8.7185878,4.0337352 -2.2072895,0.01601326 8.7185884,-4.0017078 c -1.7454984,2.3720609 -1.7354408,5.6174519 -6e-7,8.035443 z"
         transform="matrix(-0.3,0,0,-0.3,0.69,0)" />
    </marker>
  </defs>
  <metadata
     id="metadata5">
    <rdf:RDF>
      <cc:Work
         rdf:about="">
        <dc:format>image/svg+xml</dc:format>
        <dc:type
           rdf:resource="http://purl.org/dc/dcmitype/StillImage" />
        <dc:title />
      </cc:Work>
    </rdf:RDF>
  </metadata>
  <g
     inkscape:groupmode="layer"
     id="layer2"
     inkscape:label="angles"
     style="display:inline" />
  <g
     id="layer1"
     inkscape:groupmode="layer"
     inkscape:label="Layer 1"
     transform="translate(-59.5536,-104.70374)"
     style="display:inline">
    <ellipse
       ry="38.653225"
       rx="42.092808"
       cy="145.76933"
       cx="101.64641"
       id="path7460"
       style="opacity:0.20400002;fill:#9b5348;fill-opacity:0.39037434;fill-rule:nonzero;stroke:none;stroke-width:0.15870687;stroke-linejoin:round;stroke-miterlimit:4;stroke-dasharray:none;stroke-dashoffset:8.95748043;stroke-opacity:1" />
    <path
       inkscape:connector-curvature="0"
       id="path10"
       d="M 141.9992,147.79865 A 40.632132,21.507427 0 0 1 96.548713,166.4093 40.632132,21.507427 0 0 1 61.389202,142.3514 40.632132,21.507427 0 0 1 106.83969,123.74075 40.632132,21.507427 0 0 1 141.9992,147.79865 Z"
       style="opacity:1;fill:#9b5348;fill-opacity:0.39037434;fill-rule:nonzero;stroke:#1e0010;stroke-width:0.23043114;stroke-miterlimit:4;stroke-dasharray:none;stroke-dashoffset:2.36999989;stroke-opacity:1" />
    <path
       style="fill:#105348;fill-opacity:0.39037434;stroke:#000000;stroke-width:0;stroke-linecap:butt;stroke-linejoin:miter;stroke-miterlimit:4;stroke-dasharray:none;stroke-opacity:1"
       d="m 77.03003,149.61662 -5.6349,1.61214 5.610633,0.45705 c 0,0 1.775965,-1.31479 0.02427,-2.06919 z"
       id="path20602"
       inkscape:connector-curvature="0"
       sodipodi:nodetypes="ccccc" />
    <path
       style="fill:none;stroke:#000000;stroke-width:0.14812595;stroke-linecap:round;stroke-linejoin:miter;stroke-miterlimit:4;stroke-dasharray:none;stroke-opacity:1"
       d="m 77.131912,149.706 c 0,0 1.662067,0.56488 -0.03402,1.92075"
       id="path1816"
       inkscape:connector-curvature="0"
       sodipodi:nodetypes="cc" />
    <path
       inkscape:connector-curvature="0"
       id="path4539"
       d="m 71.39513,151.22876 6.15202,4.10776"
       style="fill:none;fill-opacity:1;stroke:#0d005e;stroke-width:0.40000001;stroke-linecap:round;stroke-linejoin:round;stroke-miterlimit:4;stroke-dasharray:none;stroke-opacity:1;marker-end:url(#Arrow2Send);paint-order:normal" />
    <g
       transform="matrix(0.36061267,0,0,0.36061267,18.824099,100.0113)"
       style="fill:#000000;fill-opacity:1"
       id="g1885">
      <path
         inkscape:connector-curvature="0"
         style="stroke:none;stroke-width:0"
         d="m 157.65507,133.45362 c -0.0202,0.0405 -0.0607,0.0809 -0.0607,0.12139 0,0.0607 0.0809,0.18207 0.16184,0.18207 0.0607,0 0.10115,-0.0405 0.46531,-0.40461 0.10115,-0.10116 0.36415,-0.34392 0.4653,-0.44508 0.12139,1.01154 0.48554,1.98261 1.43638,1.98261 0.526,0 0.97107,-0.30346 1.23407,-0.50577 0.18208,-0.12138 0.789,-0.62715 0.789,-0.74853 0,-0.0405 -0.0405,-0.16185 -0.14162,-0.16185 -0.0405,0 -0.0607,0.0202 -0.18207,0.12139 -0.82946,0.80922 -1.29477,1.01153 -1.67915,1.01153 -0.56646,0 -0.789,-0.68784 -0.789,-1.67915 0,-0.0809 0.0405,-0.66761 0.0809,-0.74853 0.0202,-0.0405 0.0202,-0.0607 0.28323,-0.32369 1.03176,-1.03177 2.87275,-3.21668 2.87275,-5.21952 0,-0.22254 0,-1.01153 -0.76876,-1.01153 -1.07223,0 -2.02307,2.12422 -2.14445,2.42768 -0.62716,1.41615 -1.03177,2.91322 -1.03177,4.45075 z m 1.84099,-1.80053 c 0.0202,-0.16184 0.58669,-3.01437 1.31499,-4.53167 0.34392,-0.68784 0.62715,-1.21384 1.03177,-1.21384 0.44507,0 0.44507,0.4653 0.44507,0.66761 0,2.16468 -2.18491,4.43052 -2.79183,5.0779 z m 0,0"
         id="path1883" />
    </g>
    <path
       sodipodi:nodetypes="cc"
       inkscape:connector-curvature="0"
       id="path4537"
       d="m 99.994273,143.49361 c 9.316417,0.0935 18.632837,0.18694 27.949247,0.2804"
       style="fill:#8c3238;fill-opacity:0.22033901;stroke:#000000;stroke-width:0.30000001;stroke-linecap:butt;stroke-linejoin:miter;stroke-miterlimit:4;stroke-dasharray:none;stroke-opacity:1;marker-end:url(#marker6680)" />
    <path
       style="fill:none;stroke:#000000;stroke-width:0.25668699;stroke-linecap:butt;stroke-linejoin:miter;stroke-miterlimit:4;stroke-dasharray:0.25668698, 0.25668698;stroke-dashoffset:0;stroke-opacity:1"
       d="m 71.356652,151.11478 8.926757,0.70617"
       id="path1814"
       inkscape:connector-curvature="0" />
    <path
       inkscape:connector-curvature="0"
       id="path1037"
       d="m 99.989053,143.48155 33.595377,14.98081"
       style="fill:none;stroke:#000000;stroke-width:0.08313739;stroke-linecap:butt;stroke-linejoin:miter;stroke-miterlimit:4;stroke-dasharray:0.08313739, 0.08313739;stroke-dashoffset:0;stroke-opacity:1" />
    <path
       inkscape:connector-curvature="0"
       id="path6192"
       d="m 100.11644,143.35268 v 17.66058"
       style="fill:none;stroke:#000000;stroke-width:0.17835245;stroke-linecap:butt;stroke-linejoin:miter;stroke-miterlimit:4;stroke-dasharray:0.3567049, 0.17835245;stroke-dashoffset:0;stroke-opacity:1" />
    <path
       inkscape:connector-curvature="0"
       id="path7624"
       d="M 100.11644,143.35268 V 131.49334"
       style="fill:none;stroke:#000000;stroke-width:0.26458332px;stroke-linecap:butt;stroke-linejoin:miter;stroke-opacity:1" />
    <circle
       r="0.75190043"
       cy="143.26114"
       cx="100.11635"
       id="path4531"
       style="fill:#b03238;fill-opacity:1;fill-rule:nonzero;stroke:none;stroke-width:0.29304099;stroke-miterlimit:4;stroke-dasharray:none;stroke-opacity:1" />
    <path
       inkscape:connector-curvature="0"
       id="path7462"
       d="m 79.69467,148.90395 19.861709,-5.42891"
       style="fill:none;stroke:#000000;stroke-width:0.29729998;stroke-linecap:butt;stroke-linejoin:miter;stroke-miterlimit:4;stroke-dasharray:none;stroke-opacity:1;marker-end:url(#marker7466)" />
    <g
       id="g7777"
       transform="matrix(1.3469989,0,0,1.3469989,-107.37216,-19.697331)">
      <g
         style="fill:#000000;fill-opacity:1"
         id="g7670"
         transform="matrix(0.26185398,0,0,0.26185398,115.64153,84.865375)">
        <path
           inkscape:connector-curvature="0"
           style="stroke:none;stroke-width:0"
           d="M 5.96875,-0.375 V -2.984375 H 3.875 V -2.375 h 1.3125 v 1.640625 C 4.765625,-0.59375 4.3125,-0.53125 3.875,-0.53125 c -0.65625,0 -1.25,-0.34375 -1.65625,-0.859375 -0.453125,-0.578125 -0.671875,-1.328125 -0.671875,-2.0625 0,-0.75 0.21875,-1.5 0.671875,-2.09375 0.40625,-0.5 1,-0.859375 1.65625,-0.859375 0.328125,0 0.65625,0.046875 0.984375,0.171875 C 5.1875,-6.125 5.46875,-5.9375 5.734375,-5.71875 L 5.875,-6.546875 C 5.578125,-6.703125 5.25,-6.84375 4.90625,-6.921875 4.5625,-7.015625 4.21875,-7.03125 3.875,-7.03125 c -0.875,0 -1.6875,0.390625 -2.28125,1.046875 -0.609375,0.6875 -0.9375,1.59375 -0.9375,2.53125 0,0.921875 0.328125,1.828125 0.9375,2.515625 C 2.1875,-0.296875 3,0.109375 3.875,0.109375 c 0.71875,0 1.4375,-0.171875 2.09375,-0.484375 z m 0,0"
           transform="translate(148.712,134.765)"
           id="path7666" />
        <path
           inkscape:connector-curvature="0"
           style="stroke:none;stroke-width:0"
           d="m 5.859375,-0.453125 -0.0625,-0.6875 C 5.5,-0.9375 5.21875,-0.75 4.875,-0.640625 c -0.3125,0.109375 -0.671875,0.109375 -1,0.109375 -0.65625,0 -1.25,-0.34375 -1.65625,-0.859375 -0.453125,-0.578125 -0.671875,-1.328125 -0.671875,-2.0625 0,-0.75 0.21875,-1.5 0.671875,-2.09375 0.40625,-0.5 1,-0.859375 1.65625,-0.859375 0.296875,0 0.59375,0.03125 0.890625,0.125 0.296875,0.09375 0.578125,0.234375 0.84375,0.421875 l 0.125,-0.8125 C 5.4375,-6.796875 5.140625,-6.890625 4.8125,-6.953125 4.5,-7.015625 4.1875,-7.03125 3.875,-7.03125 c -0.890625,0 -1.6875,0.390625 -2.28125,1.046875 -0.609375,0.6875 -0.9375,1.59375 -0.9375,2.53125 0,0.921875 0.328125,1.828125 0.9375,2.515625 C 2.1875,-0.296875 2.984375,0.109375 3.875,0.109375 4.21875,0.109375 4.5625,0.09375 4.90625,0 5.25,-0.09375 5.546875,-0.265625 5.859375,-0.453125 Z m 0,0"
           transform="translate(155.35409,134.765)"
           id="path7668" />
      </g>
    </g>
    <g
       id="g7783"
       transform="matrix(1.9615113,0,0,1.9615113,-226.55415,-91.594622)">
      <g
         style="fill:#000000;fill-opacity:1"
         id="g7674"
         transform="matrix(0.26185398,0,0,0.26185398,115.64153,84.865375)">
        <path
           inkscape:connector-curvature="0"
           style="stroke:none;stroke-width:0"
           d="M 4.234375,-4.53125 C 3.046875,-4.515625 2.3125,-3.625 2.296875,-3.609375 H 2.28125 l 0.1875,-0.875 H 1.78125 L 0.8125,0 h 0.75 c 0.265625,-1.21875 0.46875,-2.1875 0.5,-2.328125 C 2.25,-2.984375 2.984375,-3.84375 4.078125,-3.875 Z m 0,0"
           transform="translate(165.04,134.765)"
           id="path7672" />
      </g>
      <g
         style="fill:#000000;fill-opacity:1"
         id="g7678"
         transform="matrix(0.26185398,0,0,0.26185398,115.64153,84.865375)">
        <path
           inkscape:connector-curvature="0"
           style="stroke:none;stroke-width:0"
           d="m 5.671875,-1.734375 c 0,-1.4375 -1.15625,-2.578125 -2.5625,-2.578125 -1.421875,0 -2.578125,1.15625 -2.578125,2.5625 0,1.421875 1.171875,2.578125 2.578125,2.578125 1.421875,0 2.5625,-1.171875 2.5625,-2.5625 z m -2.5625,2.3125 c -1.296875,0 -2.328125,-1.046875 -2.328125,-2.3125 0,-1.296875 1.046875,-2.34375 2.328125,-2.34375 1.296875,0 2.328125,1.0625 2.328125,2.328125 0,1.296875 -1.046875,2.328125 -2.328125,2.328125 z M 3.625,-1.734375 c 0,-0.296875 -0.234375,-0.53125 -0.515625,-0.53125 -0.3125,0 -0.53125,0.25 -0.53125,0.515625 0,0.296875 0.25,0.53125 0.53125,0.53125 0.3125,0 0.515625,-0.25 0.515625,-0.515625 z m 0,0"
           transform="translate(168.444,136.259)"
           id="path7676" />
      </g>
    </g>
    <g
       transform="matrix(0.40188879,0,0,0.40188879,33.162279,96.315753)"
       id="g7682"
       style="fill:#000000;fill-opacity:1" />
    <g
       transform="matrix(0.40188879,0,0,0.40188879,32.452421,90.374047)"
       id="g7690"
       style="fill:#000000;fill-opacity:1">
      <path
         id="path7688"
         d="m 203.00643,128.03109 c 0,-1.1351 0.94592,-1.60806 1.70265,-1.66481 0.22702,0 0.24594,0 0.24594,-0.32161 v -0.56755 c 0,-0.24594 0,-0.32161 -0.20811,-0.32161 -0.34053,0 -1.22968,0.11351 -1.79723,1.41887 v -0.77565 c 0,-0.39729 -0.0946,-0.58647 -0.58647,-0.58647 h -0.37837 c -0.43512,0 -0.58646,0.13243 -0.58646,0.58647 v 4.42688 c 0,0.43512 0.13242,0.58647 0.58646,0.58647 h 0.43512 c 0.45404,0 0.58647,-0.15135 0.58647,-0.58647 z m 0,0"
         style="stroke:none;stroke-width:0"
         inkscape:connector-curvature="0" />
    </g>
    <path
       style="fill:#8c3238;fill-opacity:0.22033901;stroke:#000000;stroke-width:0.065;stroke-linecap:butt;stroke-linejoin:miter;stroke-miterlimit:4;stroke-dasharray:none;stroke-opacity:1"
       d="m 125.98005,142.84154 c 0,0 -0.0473,4.44122 1.98437,3.16555 2.03162,-1.27567 1.5119,0.33073 2.92932,-0.33073 1.41741,-0.66146 1.13392,-2.17336 0.14174,-2.97656 -0.99219,-0.8032 -2.74033,-2.69308 -2.92932,-1.65365 -0.18899,1.03944 -1.32292,-0.37797 -1.74814,0.66146 -0.42522,1.03943 -0.37797,1.13393 -0.37797,1.13393 z"
       id="path877"
       inkscape:connector-curvature="0" />
    <circle
       style="opacity:1;fill:#000000;fill-opacity:1;fill-rule:nonzero;stroke:none;stroke-width:0.02454868;stroke-linejoin:round;stroke-miterlimit:4;stroke-dasharray:none;stroke-dashoffset:8.95748043;stroke-opacity:1"
       id="path881"
       cx="128.78291"
       cy="143.58508"
       r="0.32118982" />
    <g
       transform="matrix(0.40004983,0,0,0.40004983,18.654927,100.66713)"
       style="fill:#000000;fill-opacity:1"
       id="g1881">
      <path
         inkscape:connector-curvature="0"
         style="stroke:none;stroke-width:0"
         d="m 153.07418,129.71378 h -0.75 l -1.48438,6.92187 h 0.78125 l 0.0937,-0.45312 c 0.28125,0.32812 0.67188,0.5625 1.21875,0.5625 1.1875,0 2.42188,-1.39063 2.42188,-3.01563 0,-0.8125 -0.35938,-1.625 -1.20313,-1.625 -0.57812,0 -1.23437,0.21875 -1.71875,0.57813 z m -0.73438,3.57812 c 0.0937,-0.10937 0.54688,-0.57812 1.17188,-0.57812 0.59375,0 1.0625,0.39062 1.0625,1.15625 0,1.125 -0.76563,2.26562 -1.89063,2.26562 -0.42187,0 -0.6875,-0.23437 -0.8125,-0.64062 z m 0,0"
         id="path1879" />
    </g>
    <path
       sodipodi:nodetypes="cc"
       inkscape:connector-curvature="0"
       id="path6562"
       d="m 71.377412,151.12246 8.40159,-2.2512"
       style="fill:none;fill-opacity:1;stroke:#0d005e;stroke-width:0.40000001;stroke-linecap:butt;stroke-linejoin:miter;stroke-miterlimit:4;stroke-dasharray:none;stroke-opacity:1;marker-end:url(#marker6586)" />
    <path
       style="fill:none;stroke:#000000;stroke-width:0.1317782;stroke-linecap:butt;stroke-linejoin:miter;stroke-miterlimit:4;stroke-dasharray:none;stroke-opacity:1"
       d="m 78.856982,150.08236 c 0,0 1.611747,0.41828 0.786167,1.79"
       id="path1812"
       inkscape:connector-curvature="0" />
    <path
       inkscape:connector-curvature="0"
       id="path4541"
       d="m 71.39513,151.22876 v -8.47849"
       style="fill:none;fill-opacity:1;stroke:#0d005e;stroke-width:0.40000001;stroke-linecap:round;stroke-linejoin:round;stroke-miterlimit:4;stroke-dasharray:none;stroke-opacity:1;marker-end:url(#marker6608);paint-order:normal" />
    <g
       id="g2049"
       ns1:jacobian_sqrt="0.352778"
       inkscapeversion="0.92.3"
       ns1:alignment="middle center"
       ns1:scale="1.0"
       ns1:preamble="/home/mpotto/.config/inkscape/extensions/textext/default_packages.tex"
       ns1:text="\\textsf{DM Halo}"
       ns1:pdfconverter="pdf2svg"
       ns1:texconverter="lualatex"
       ns1:version="0.11.0"
       transform="matrix(0.352778,0,0,0.352778,66.316693,60.66183)">
      <g
         id="surface1">
        <g
           id="g2036"
           style="fill:#000000;fill-opacity:1">
          <path
             id="path2032"
             transform="translate(148.712,134.765)"
             d="m 6.625,-3.40625 c 0,-1.921875 -1.34375,-3.515625 -3.0625,-3.515625 H 0.953125 V 0 h 2.625 C 5.28125,0 6.625,-1.515625 6.625,-3.40625 Z m -0.859375,0 c 0,1.703125 -1.03125,2.84375 -2.421875,2.84375 H 1.8125 v -5.796875 h 1.53125 c 1.390625,0 2.421875,1.203125 2.421875,2.953125 z m 0,0"
             style="stroke:none;stroke-width:0"
             inkscape:connector-curvature="0" />
          <path
             id="path2034"
             transform="translate(155.90702,134.765)"
             d="M 7.71875,0 V -6.921875 H 6.578125 L 5.28125,-3.53125 C 4.9375,-2.625 4.46875,-1.390625 4.359375,-0.921875 H 4.34375 c -0.046875,-0.21875 -0.171875,-0.578125 -0.3125,-1 l -1.5625,-4.125 -0.34375,-0.875 H 1 V 0 H 1.78125 V -6.1875 C 1.84375,-5.859375 2.25,-4.78125 2.5,-4.09375 l 1.484375,3.875 h 0.71875 L 6.03125,-3.6875 6.515625,-4.953125 C 6.609375,-5.25 6.875,-5.96875 6.921875,-6.1875 H 6.9375 V 0 Z m 0,0"
             style="stroke:none;stroke-width:0"
             inkscape:connector-curvature="0" />
        </g>
        <g
           id="g2046"
           style="fill:#000000;fill-opacity:1">
          <path
             id="path2038"
             transform="translate(167.94189,134.765)"
             d="M 6.109375,0 V -6.921875 H 5.21875 v 3.03125 H 1.828125 v -3.03125 H 0.9375 V 0 H 1.828125 V -3.296875 H 5.21875 V 0 Z m 0,0"
             style="stroke:none;stroke-width:0"
             inkscape:connector-curvature="0" />
          <path
             id="path2040"
             transform="translate(174.99843,134.765)"
             d="m 4.078125,0 v -2.875 c 0,-1.015625 -0.734375,-1.71875 -1.640625,-1.71875 -0.65625,0 -1.109375,0.15625 -1.5625,0.421875 l 0.046875,0.65625 C 1.453125,-3.875 1.9375,-4 2.4375,-4 c 0.46875,0 0.859375,0.390625 0.859375,1.125 v 0.4375 C 1.796875,-2.421875 0.53125,-2 0.53125,-1.125 c 0,0.421875 0.28125,1.234375 1.140625,1.234375 0.140625,0 1.078125,-0.015625 1.65625,-0.46875 V 0 Z m -0.78125,-1.3125 c 0,0.1875 0,0.4375 -0.34375,0.625 C 2.671875,-0.515625 2.296875,-0.5 2.1875,-0.5 1.703125,-0.5 1.25,-0.734375 1.25,-1.140625 1.25,-1.84375 2.875,-1.90625 3.296875,-1.9375 Z m 0,0"
             style="stroke:none;stroke-width:0"
             inkscape:connector-curvature="0" />
          <path
             id="path2042"
             transform="translate(179.78547,134.765)"
             d="m 1.5625,0 v -6.921875 h -0.75 V 0 Z m 0,0"
             style="stroke:none;stroke-width:0"
             inkscape:connector-curvature="0" />
          <path
             id="path2044"
             transform="translate(182.16555,134.765)"
             d="m 4.671875,-2.1875 c 0,-1.34375 -1,-2.40625 -2.171875,-2.40625 -1.234375,0 -2.203125,1.09375 -2.203125,2.40625 0,1.3125 1.015625,2.296875 2.1875,2.296875 1.1875,0 2.1875,-1 2.1875,-2.296875 z m -0.78125,-0.109375 c 0,1.1875 -0.671875,1.765625 -1.40625,1.765625 -0.6875,0 -1.40625,-0.5625 -1.40625,-1.765625 0,-1.203125 0.75,-1.6875 1.40625,-1.6875 0.703125,0 1.40625,0.515625 1.40625,1.6875 z m 0,0"
             style="stroke:none;stroke-width:0"
             inkscape:connector-curvature="0" />
        </g>
      </g>
    </g>
    <g
       transform="translate(-1.4552083,2.2489582)"
       id="g920">
      <path
         inkscape:connector-curvature="0"
         id="path2123"
         d="m 123.35693,118.64993 c 0,0 3.7987,-1.18402 7.34989,5.55328"
         style="fill:none;stroke:#000000;stroke-width:0.27132192px;stroke-linecap:butt;stroke-linejoin:miter;stroke-opacity:1" />
      <path
         inkscape:connector-curvature="0"
         id="path2174"
         d="m 127.71254,123.22498 c 0,0 3.10885,-2.38125 3.86953,-5.39088"
         style="fill:none;stroke:#000000;stroke-width:0.26458332px;stroke-linecap:butt;stroke-linejoin:miter;stroke-opacity:1" />
      <g
         id="g913">
        <path
           style="fill:none;stroke:#000000;stroke-width:0.28051481px;stroke-linecap:butt;stroke-linejoin:miter;stroke-opacity:1"
           d="m 125.27677,116.93545 c 0,0 3.69861,-1.29987 7.1562,6.09663"
           id="path2123-5"
           inkscape:connector-curvature="0" />
        <path
           style="fill:none;stroke:#000000;stroke-width:0.26458332px;stroke-linecap:butt;stroke-linejoin:miter;stroke-opacity:1"
           d="m 126.41036,121.51654 c 0,0 3.83646,-2.84427 3.24115,-5.29167"
           id="path2176"
           inkscape:connector-curvature="0" />
      </g>
    </g>
    <path
       sodipodi:nodetypes="cc"
       style="fill:none;stroke:#c10000;stroke-width:0.16500001;stroke-linecap:butt;stroke-linejoin:miter;stroke-miterlimit:4;stroke-dasharray:none;stroke-opacity:1;marker-end:url(#marker1169)"
       d="m 77.221152,150.08229 c 0,0 0.07778,-0.37885 -0.198437,-1.30638"
       id="path890"
       inkscape:connector-curvature="0" />
    <path
       sodipodi:nodetypes="cc"
       style="fill:none;stroke:#c10000;stroke-width:0.16500001;stroke-linecap:butt;stroke-linejoin:miter;stroke-miterlimit:4;stroke-dasharray:none;stroke-opacity:1;marker-end:url(#marker1169-6)"
       d="m 86.376961,148.68202 c 0,0 0.06615,0.89297 0.198437,1.30638"
       id="path890-5"
       inkscape:connector-curvature="0" />
    <path
       sodipodi:nodetypes="cc"
       inkscape:connector-curvature="0"
       id="path4535"
       d="m 71.35636,151.11525 56.58188,-7.34524"
       style="fill:none;stroke:#000000;stroke-width:0.30000001;stroke-linecap:round;stroke-linejoin:round;stroke-miterlimit:4;stroke-dasharray:none;stroke-opacity:1;marker-end:url(#marker17673);paint-order:normal" />
    <path
       style="fill:#105348;fill-opacity:0.39037434;stroke:#000000;stroke-width:0;stroke-linecap:butt;stroke-linejoin:miter;stroke-miterlimit:4;stroke-dasharray:none;stroke-opacity:1"
       d="m 77.298929,149.70344 -5.942569,1.41181"
       id="path20417-3"
       inkscape:connector-curvature="0"
       sodipodi:nodetypes="cc" />
    <path
       style="fill:none;stroke:#000000;stroke-width:0.16500001;stroke-linecap:butt;stroke-linejoin:miter;stroke-miterlimit:4;stroke-dasharray:none;stroke-opacity:1"
       d="m 86.448496,147.12227 c 0,0 2.017448,0.26458 0.79375,1.85208"
       id="path20606"
       inkscape:connector-curvature="0" />
    <g
       transform="matrix(0.4778327,0,0,0.4778327,15.516051,88.656274)"
       ns1:version="0.11.0"
       ns1:texconverter="lualatex"
       ns1:pdfconverter="pdf2svg"
       ns1:text="$\\theta$"
       ns1:preamble="/home/mpotto/.config/inkscape/extensions/textext/default_packages.tex"
       ns1:scale="1.0"
       ns1:alignment="middle center"
       inkscapeversion="0.92.3"
       ns1:jacobian_sqrt="0.352778"
       id="g20696">
      <g
         id="g20694">
        <g
           style="fill:#000000;fill-opacity:1"
           id="g20692">
          <path
             inkscape:connector-curvature="0"
             style="stroke:none;stroke-width:0"
             d="m 4.53125,-4.984375 c 0,-0.65625 -0.171875,-2.046875 -1.1875,-2.046875 -1.390625,0 -2.921875,2.8125 -2.921875,5.09375 0,0.9375 0.28125,2.046875 1.1875,2.046875 1.40625,0 2.921875,-2.859375 2.921875,-5.09375 z M 1.46875,-3.625 C 1.640625,-4.25 1.84375,-5.046875 2.25,-5.765625 2.515625,-6.25 2.875,-6.8125 3.328125,-6.8125 c 0.484375,0 0.546875,0.640625 0.546875,1.203125 0,0.5 -0.078125,1 -0.3125,1.984375 z m 2,0.328125 C 3.359375,-2.84375 3.15625,-2 2.765625,-1.28125 c -0.34375,0.6875 -0.71875,1.171875 -1.15625,1.171875 -0.328125,0 -0.53125,-0.296875 -0.53125,-1.21875 0,-0.421875 0.0625,-1 0.3125,-1.96875 z m 0,0"
             transform="translate(148.712,134.765)"
             id="path20690" />
        </g>
      </g>
    </g>
    <circle
       r="0.46846366"
       cy="151.05255"
       cx="71.472717"
       id="path26783"
       style="opacity:1;fill:#ffb348;fill-opacity:1;fill-rule:nonzero;stroke:none;stroke-width:0.12866554;stroke-linecap:round;stroke-linejoin:round;stroke-miterlimit:4;stroke-dasharray:none;stroke-dashoffset:0;stroke-opacity:1;paint-order:normal" />
    <path
       sodipodi:nodetypes="cc"
       inkscape:connector-curvature="0"
       id="path908"
       d="m 118.66415,112.02277 c -0.2812,-0.0937 0.003,-1.3476 1.49671,-2.87649"
       style="fill:none;stroke:#000000;stroke-width:0.26499999;stroke-linecap:butt;stroke-linejoin:miter;stroke-miterlimit:4;stroke-dasharray:none;stroke-opacity:1;marker-end:url(#Arrow1Send)" />
    <g
       id="g1015"
       ns1:jacobian_sqrt="0.352778"
       inkscapeversion="0.92.3"
       ns1:alignment="middle center"
       ns1:scale="1.0"
       ns1:preamble="/home/mpotto/.config/inkscape/extensions/textext/default_packages.tex"
       ns1:text="$\\mathbf{s}$"
       ns1:pdfconverter="pdf2svg"
       ns1:texconverter="lualatex"
       ns1:version="0.11.0"
       transform="matrix(0.46865227,0,0,0.46865227,32.104973,87.559484)">
      <g
         id="g1013">
        <g
           id="g1011"
           style="fill:#000000;fill-opacity:1">
          <path
             id="path1009"
             transform="translate(148.712,134.765)"
             d="m 3.953125,-1.40625 c 0,-0.5625 -0.296875,-0.90625 -0.484375,-1.0625 -0.390625,-0.359375 -0.75,-0.421875 -1.171875,-0.5 -0.546875,-0.109375 -0.9375,-0.1875 -0.9375,-0.5625 0,-0.421875 0.328125,-0.5 0.71875,-0.5 0.65625,0 1.015625,0.25 1.28125,0.46875 0.09375,0.109375 0.125,0.109375 0.15625,0.109375 0.109375,0 0.125,-0.09375 0.140625,-0.140625 0.015625,-0.078125 0.109375,-0.640625 0.109375,-0.6875 0,-0.15625 -0.53125,-0.296875 -0.640625,-0.328125 -0.390625,-0.109375 -0.71875,-0.125 -0.96875,-0.125 -0.453125,0 -1.78125,0 -1.78125,1.421875 0,0.484375 0.21875,0.796875 0.484375,1.03125 0.34375,0.3125 0.734375,0.390625 1.296875,0.5 0.296875,0.046875 0.796875,0.140625 0.796875,0.578125 0,0.46875 -0.375,0.53125 -0.765625,0.53125 -0.4375,0 -1,-0.125 -1.46875,-0.6875 C 0.671875,-1.40625 0.640625,-1.4375 0.578125,-1.4375 c -0.09375,0 -0.125,0.09375 -0.125,0.15625 -0.03125,0.140625 -0.140625,0.703125 -0.140625,0.796875 0,0.1875 0.734375,0.421875 0.75,0.421875 0.546875,0.171875 0.953125,0.171875 1.125,0.171875 0.5,0 1.765625,-0.046875 1.765625,-1.515625 z m 0,0"
             style="stroke:none;stroke-width:0"
             inkscape:connector-curvature="0" />
        </g>
      </g>
    </g>
    <path
       style="fill:#9b5348;fill-opacity:0.39037434;stroke:#000000;stroke-width:0;stroke-linecap:butt;stroke-linejoin:miter;stroke-miterlimit:4;stroke-dasharray:none;stroke-opacity:1"
       d="m 79.120363,150.25204 -7.725233,0.97672 8.151351,0.66104 c 0,0 0.820658,-1.04714 -0.426118,-1.63776 z"
       id="path8833"
       inkscape:connector-curvature="0"
       sodipodi:nodetypes="cccc" />
    <path
       sodipodi:nodetypes="cc"
       style="display:inline;fill:none;stroke:#c10000;stroke-width:0.16500001;stroke-linecap:butt;stroke-linejoin:miter;stroke-miterlimit:4;stroke-dasharray:none;stroke-opacity:1;marker-end:url(#marker1169-3)"
       d="m 78.88235,150.92918 c 0,0 -0.02346,0.38604 0.381057,1.26523"
       id="path890-7"
       inkscape:connector-curvature="0" />
  </g>
</svg>
